<svg width="34" height="34" viewBox="0 0 34 34" fill="none" xmlns="http://www.w3.org/2000/svg">
<g clip-path="url(#clip0_67_44)">
<path d="M4.25 26.9167C6.18824 25.7976 8.38691 25.2085 10.625 25.2085C12.8631 25.2085 15.0618 25.7976 17 26.9167C18.9382 25.7976 21.1369 25.2085 23.375 25.2085C25.6131 25.2085 27.8118 25.7976 29.75 26.9167" stroke="url(#paint0_linear_67_44)" stroke-width="2" stroke-linecap="round" stroke-linejoin="round"/>
<path d="M4.25 8.49992C6.18824 7.38088 8.38691 6.79175 10.625 6.79175C12.8631 6.79175 15.0618 7.38088 17 8.49992C18.9382 7.38088 21.1369 6.79175 23.375 6.79175C25.6131 6.79175 27.8118 7.38088 29.75 8.49992" stroke="url(#paint1_linear_67_44)" stroke-width="2" stroke-linecap="round" stroke-linejoin="round"/>
<path d="M4.25 8.5V26.9167" stroke="url(#paint2_linear_67_44)" stroke-width="2" stroke-linecap="round" stroke-linejoin="round"/>
<path d="M17 8.5V26.9167" stroke="url(#paint3_linear_67_44)" stroke-width="2" stroke-linecap="round" stroke-linejoin="round"/>
<path d="M29.75 8.5V26.9167" stroke="url(#paint4_linear_67_44)" stroke-width="2" stroke-linecap="round" stroke-linejoin="round"/>
</g>
<defs>
<linearGradient id="paint0_linear_67_44" x1="17" y1="25.2085" x2="17" y2="26.9167" gradientUnits="userSpaceOnUse">
<stop offset="0.280556" stop-color="#55ABC8"/>
<stop offset="1" stop-color="#5E0CE4"/>
</linearGradient>
<linearGradient id="paint1_linear_67_44" x1="17" y1="6.79175" x2="17" y2="8.49992" gradientUnits="userSpaceOnUse">
<stop offset="0.280556" stop-color="#55ABC8"/>
<stop offset="1" stop-color="#5E0CE4"/>
</linearGradient>
<linearGradient id="paint2_linear_67_44" x1="4.75" y1="8.5" x2="4.75" y2="26.9167" gradientUnits="userSpaceOnUse">
<stop offset="0.280556" stop-color="#55ABC8"/>
<stop offset="1" stop-color="#5E0CE4"/>
</linearGradient>
<linearGradient id="paint3_linear_67_44" x1="17.5" y1="8.5" x2="17.5" y2="26.9167" gradientUnits="userSpaceOnUse">
<stop offset="0.280556" stop-color="#55ABC8"/>
<stop offset="1" stop-color="#5E0CE4"/>
</linearGradient>
<linearGradient id="paint4_linear_67_44" x1="30.25" y1="8.5" x2="30.25" y2="26.9167" gradientUnits="userSpaceOnUse">
<stop offset="0.280556" stop-color="#55ABC8"/>
<stop offset="1" stop-color="#5E0CE4"/>
</linearGradient>
<clipPath id="clip0_67_44">
<rect width="34" height="34" fill="white"/>
</clipPath>
</defs>
</svg>
