<svg width="23" height="24" viewBox="0 0 23 24" fill="none" xmlns="http://www.w3.org/2000/svg">
<g clip-path="url(#clip0_26_165)">
<path d="M2.875 5C2.875 4.46957 3.07693 3.96086 3.43638 3.58579C3.79582 3.21071 4.28334 3 4.79167 3H18.2083C18.7167 3 19.2042 3.21071 19.5636 3.58579C19.9231 3.96086 20.125 4.46957 20.125 5V19C20.125 19.5304 19.9231 20.0391 19.5636 20.4142C19.2042 20.7893 18.7167 21 18.2083 21H4.79167C4.28334 21 3.79582 20.7893 3.43638 20.4142C3.07693 20.0391 2.875 19.5304 2.875 19V5Z" stroke="#DF6632" stroke-width="2" stroke-linecap="round" stroke-linejoin="round"/>
<path d="M11.4999 12.5C11.7646 12.5 11.9791 12.2761 11.9791 12C11.9791 11.7239 11.7646 11.5 11.4999 11.5C11.2353 11.5 11.0208 11.7239 11.0208 12C11.0208 12.2761 11.2353 12.5 11.4999 12.5Z" fill="#DF6632" stroke="#DF6632" stroke-width="2" stroke-linecap="round" stroke-linejoin="round"/>
</g>
<defs>
<clipPath id="clip0_26_165">
<rect width="23" height="24" fill="white"/>
</clipPath>
</defs>
</svg>
