<svg width="23" height="25" viewBox="0 0 23 25" fill="none" xmlns="http://www.w3.org/2000/svg">
<g clip-path="url(#clip0_53_1381)">
<path d="M2.875 5.78418C2.875 5.25375 3.07693 4.74504 3.43638 4.36997C3.79582 3.99489 4.28334 3.78418 4.79167 3.78418H18.2083C18.7167 3.78418 19.2042 3.99489 19.5636 4.36997C19.9231 4.74504 20.125 5.25375 20.125 5.78418V19.7842C20.125 20.3146 19.9231 20.8233 19.5636 21.1984C19.2042 21.5735 18.7167 21.7842 18.2083 21.7842H4.79167C4.28334 21.7842 3.79582 21.5735 3.43638 21.1984C3.07693 20.8233 2.875 20.3146 2.875 19.7842V5.78418Z" stroke="#DF6632" stroke-width="2" stroke-linecap="round" stroke-linejoin="round"/>
<path d="M11.4999 13.2842C11.7646 13.2842 11.9791 13.0603 11.9791 12.7842C11.9791 12.508 11.7646 12.2842 11.4999 12.2842C11.2353 12.2842 11.0208 12.508 11.0208 12.7842C11.0208 13.0603 11.2353 13.2842 11.4999 13.2842Z" fill="#DF6632" stroke="#DF6632" stroke-width="2" stroke-linecap="round" stroke-linejoin="round"/>
</g>
<defs>
<clipPath id="clip0_53_1381">
<rect width="23" height="24" fill="white" transform="translate(0 0.78418)"/>
</clipPath>
</defs>
</svg>
