<svg width="16" height="16" viewBox="0 0 16 16" fill="none" xmlns="http://www.w3.org/2000/svg">
<g clip-path="url(#clip0_69_75)">
<path d="M8 8C8 8.53043 8.21071 9.03914 8.58579 9.41421C8.96086 9.78929 9.46957 10 10 10C10.5304 10 11.0391 9.78929 11.4142 9.41421C11.7893 9.03914 12 8.53043 12 8C12 7.46957 11.7893 6.96086 11.4142 6.58579C11.0391 6.21071 10.5304 6 10 6C9.46957 6 8.96086 6.21071 8.58579 6.58579C8.21071 6.96086 8 7.46957 8 8Z" stroke="white" stroke-linecap="round" stroke-linejoin="round"/>
<path d="M4 4C4 3.46957 4.21071 2.96086 4.58579 2.58579C4.96086 2.21071 5.46957 2 6 2H10C10.5304 2 11.0391 2.21071 11.4142 2.58579C11.7893 2.96086 12 3.46957 12 4C12 4.53043 11.7893 5.03914 11.4142 5.41421C11.0391 5.78929 10.5304 6 10 6H6C5.46957 6 4.96086 5.78929 4.58579 5.41421C4.21071 5.03914 4 4.53043 4 4Z" stroke="white" stroke-linecap="round" stroke-linejoin="round"/>
<path d="M6 6C5.46957 6 4.96086 6.21071 4.58579 6.58579C4.21071 6.96086 4 7.46957 4 8C4 8.53043 4.21071 9.03914 4.58579 9.41421C4.96086 9.78929 5.46957 10 6 10M6 10H8M6 10C5.60444 10 5.21776 10.1173 4.88886 10.3371C4.55996 10.5568 4.30362 10.8692 4.15224 11.2346C4.00087 11.6001 3.96126 12.0022 4.03843 12.3902C4.1156 12.7781 4.30608 13.1345 4.58579 13.4142C4.86549 13.6939 5.22186 13.8844 5.60982 13.9616C5.99778 14.0387 6.39992 13.9991 6.76537 13.8478C7.13082 13.6964 7.44318 13.44 7.66294 13.1111C7.8827 12.7822 8 12.3956 8 12V2" stroke="white" stroke-linecap="round" stroke-linejoin="round"/>
</g>
<defs>
<clipPath id="clip0_69_75">
<rect width="16" height="16" fill="white"/>
</clipPath>
</defs>
</svg>
