<svg width="42" height="42" viewBox="0 0 42 42" fill="none" xmlns="http://www.w3.org/2000/svg">
<g clip-path="url(#clip0_50_1201)">
<path d="M21 21C21 22.3924 21.5531 23.7277 22.5377 24.7123C23.5223 25.6969 24.8576 26.25 26.25 26.25C27.6424 26.25 28.9777 25.6969 29.9623 24.7123C30.9469 23.7277 31.5 22.3924 31.5 21C31.5 19.6076 30.9469 18.2723 29.9623 17.2877C28.9777 16.3031 27.6424 15.75 26.25 15.75C24.8576 15.75 23.5223 16.3031 22.5377 17.2877C21.5531 18.2723 21 19.6076 21 21Z" stroke="url(#paint0_linear_50_1201)" stroke-width="2" stroke-linecap="round" stroke-linejoin="round"/>
<path d="M10.5 10.5C10.5 9.10761 11.0531 7.77226 12.0377 6.78769C13.0223 5.80312 14.3576 5.25 15.75 5.25H26.25C27.6424 5.25 28.9777 5.80312 29.9623 6.78769C30.9469 7.77226 31.5 9.10761 31.5 10.5C31.5 11.8924 30.9469 13.2277 29.9623 14.2123C28.9777 15.1969 27.6424 15.75 26.25 15.75H15.75C14.3576 15.75 13.0223 15.1969 12.0377 14.2123C11.0531 13.2277 10.5 11.8924 10.5 10.5Z" stroke="url(#paint1_linear_50_1201)" stroke-width="2" stroke-linecap="round" stroke-linejoin="round"/>
<path d="M15.75 15.75C14.3576 15.75 13.0223 16.3031 12.0377 17.2877C11.0531 18.2723 10.5 19.6076 10.5 21C10.5 22.3924 11.0531 23.7277 12.0377 24.7123C13.0223 25.6969 14.3576 26.25 15.75 26.25M15.75 26.25H21M15.75 26.25C14.7117 26.25 13.6966 26.5579 12.8333 27.1348C11.9699 27.7117 11.297 28.5316 10.8996 29.4909C10.5023 30.4502 10.3983 31.5058 10.6009 32.5242C10.8035 33.5426 11.3035 34.4781 12.0377 35.2123C12.7719 35.9465 13.7074 36.4466 14.7258 36.6491C15.7442 36.8517 16.7998 36.7477 17.7591 36.3504C18.7184 35.953 19.5383 35.2801 20.1152 34.4167C20.6921 33.5534 21 32.5384 21 31.5V5.25" stroke="url(#paint2_linear_50_1201)" stroke-width="2" stroke-linecap="round" stroke-linejoin="round"/>
</g>
<defs>
<linearGradient id="paint0_linear_50_1201" x1="26.25" y1="15.75" x2="26.25" y2="26.25" gradientUnits="userSpaceOnUse">
<stop stop-color="#55ABC8"/>
<stop offset="1" stop-color="#5E0CE4"/>
</linearGradient>
<linearGradient id="paint1_linear_50_1201" x1="21" y1="5.25" x2="21" y2="15.75" gradientUnits="userSpaceOnUse">
<stop stop-color="#55ABC8"/>
<stop offset="1" stop-color="#5E0CE4"/>
</linearGradient>
<linearGradient id="paint2_linear_50_1201" x1="15.75" y1="5.25" x2="15.75" y2="36.75" gradientUnits="userSpaceOnUse">
<stop stop-color="#55ABC8"/>
<stop offset="1" stop-color="#5E0CE4"/>
</linearGradient>
<clipPath id="clip0_50_1201">
<rect width="42" height="42" fill="white"/>
</clipPath>
</defs>
</svg>
