<svg width="43" height="43" viewBox="0 0 43 43" fill="none" xmlns="http://www.w3.org/2000/svg">
<path d="M21.5 2.6875C11.1111 2.6875 2.6875 11.3295 2.6875 21.9787C2.6875 30.5031 8.0793 37.7258 15.5539 40.2789C15.6587 40.3017 15.7658 40.3129 15.873 40.3125C16.5701 40.3125 16.8389 39.8002 16.8389 39.3551C16.8389 38.8932 16.8221 37.6838 16.8137 36.0713C16.1914 36.2172 15.5548 36.2932 14.9156 36.298C11.2959 36.298 10.4729 33.4846 10.4729 33.4846C9.61621 31.259 8.38164 30.6627 8.38164 30.6627C6.74395 29.5121 8.37324 29.4785 8.49922 29.4785H8.50762C10.3973 29.6465 11.3883 31.4773 11.3883 31.4773C12.3289 33.1234 13.5887 33.5854 14.7141 33.5854C15.4582 33.5705 16.1908 33.3988 16.8641 33.0814C17.032 31.8385 17.5191 30.9902 18.0566 30.5031C13.8826 30.016 9.49023 28.3615 9.49023 20.9709C9.49023 18.8629 10.2209 17.1412 11.4219 15.7975C11.2287 15.3104 10.582 13.3451 11.6066 10.6912C11.7441 10.6583 11.8853 10.6442 12.0266 10.6492C12.7068 10.6492 14.2438 10.9096 16.7801 12.6732C19.8619 11.811 23.1213 11.811 26.2031 12.6732C28.7395 10.9096 30.2764 10.6492 30.9566 10.6492C31.0979 10.6442 31.2391 10.6583 31.3766 10.6912C32.4012 13.3451 31.7545 15.3104 31.5613 15.7975C32.7623 17.1496 33.493 18.8713 33.493 20.9709C33.493 28.3783 29.0922 30.0076 24.9014 30.4863C25.5732 31.0826 26.1779 32.2584 26.1779 34.0557C26.1779 36.634 26.1527 38.7168 26.1527 39.3467C26.1527 39.8002 26.4131 40.3125 27.1102 40.3125C27.223 40.313 27.3356 40.3017 27.4461 40.2789C34.9291 37.7258 40.3125 30.4947 40.3125 21.9787C40.3125 11.3295 31.8889 2.6875 21.5 2.6875Z" fill="white"/>
</svg>
