<svg width="200" height="200" viewBox="0 0 200 200" fill="none" xmlns="http://www.w3.org/2000/svg">
<g clip-path="url(#clip0_39_41)">
<path d="M75 158.333C39.1667 170 39.1667 137.5 25 133.333M125 175V145.833C125 137.5 125.833 134.167 120.833 129.167C144.167 126.667 166.667 117.5 166.667 79.1667C166.657 69.2081 162.771 59.6443 155.833 52.5001C159.087 43.8498 158.788 34.2636 155 25.8334C155 25.8334 145.833 23.3334 125.833 36.6667C108.894 32.255 91.1064 32.255 74.1667 36.6667C54.1667 23.3334 45 25.8334 45 25.8334C41.2123 34.2636 40.9128 43.8498 44.1667 52.5001C37.2288 59.6443 33.3435 69.2081 33.3333 79.1667C33.3333 117.5 55.8333 126.667 79.1667 129.167C74.1667 134.167 74.1667 139.167 75 145.833V175" stroke="#606EF0" stroke-width="5" stroke-linecap="round" stroke-linejoin="round"/>
</g>
<defs>
<clipPath id="clip0_39_41">
<rect width="200" height="200" fill="white"/>
</clipPath>
</defs>
</svg>
