<svg width="24" height="24" viewBox="0 0 24 24" fill="none" xmlns="http://www.w3.org/2000/svg">
<g clip-path="url(#clip0_20_865)">
<path d="M11 13C11 13.2652 11.1054 13.5196 11.2929 13.7071C11.4804 13.8946 11.7348 14 12 14C12.2652 14 12.5196 13.8946 12.7071 13.7071C12.8946 13.5196 13 13.2652 13 13C13 12.7348 12.8946 12.4804 12.7071 12.2929C12.5196 12.1054 12.2652 12 12 12C11.7348 12 11.4804 12.1054 11.2929 12.2929C11.1054 12.4804 11 12.7348 11 13Z" stroke="#4A8A73" stroke-width="2" stroke-linecap="round" stroke-linejoin="round"/>
<path d="M7 13C7 14.3261 7.52678 15.5979 8.46447 16.5355C9.40215 17.4732 10.6739 18 12 18C13.3261 18 14.5979 17.4732 15.5355 16.5355C16.4732 15.5979 17 14.3261 17 13C17 11.6739 16.4732 10.4021 15.5355 9.46447C14.5979 8.52678 13.3261 8 12 8C10.6739 8 9.40215 8.52678 8.46447 9.46447C7.52678 10.4021 7 11.6739 7 13Z" stroke="#4A8A73" stroke-width="2" stroke-linecap="round" stroke-linejoin="round"/>
<path d="M3 13C3 14.1819 3.23279 15.3522 3.68508 16.4442C4.13738 17.5361 4.80031 18.5282 5.63604 19.364C6.47177 20.1997 7.46392 20.8626 8.55585 21.3149C9.64778 21.7672 10.8181 22 12 22C13.1819 22 14.3522 21.7672 15.4442 21.3149C16.5361 20.8626 17.5282 20.1997 18.364 19.364C19.1997 18.5282 19.8626 17.5361 20.3149 16.4442C20.7672 15.3522 21 14.1819 21 13C21 11.8181 20.7672 10.6478 20.3149 9.55585C19.8626 8.46392 19.1997 7.47177 18.364 6.63604C17.5282 5.80031 16.5361 5.13738 15.4442 4.68508C14.3522 4.23279 13.1819 4 12 4C10.8181 4 9.64778 4.23279 8.55585 4.68508C7.46392 5.13738 6.47177 5.80031 5.63604 6.63604C4.80031 7.47177 4.13738 8.46392 3.68508 9.55585C3.23279 10.6478 3 11.8181 3 13Z" stroke="#4A8A73" stroke-width="2" stroke-linecap="round" stroke-linejoin="round"/>
</g>
<defs>
<clipPath id="clip0_20_865">
<rect width="24" height="24" fill="white"/>
</clipPath>
</defs>
</svg>
