<svg width="42" height="42" viewBox="0 0 42 42" fill="none" xmlns="http://www.w3.org/2000/svg">
<g clip-path="url(#clip0_47_1178)">
<path d="M35 7L31.5 32.375L21 35.875L10.5 32.375L7 7H35Z" stroke="url(#paint0_linear_47_1178)" stroke-width="2" stroke-linecap="round" stroke-linejoin="round"/>
<path d="M13.125 14H18.375V28L14.875 26.25" stroke="url(#paint1_linear_47_1178)" stroke-width="2" stroke-linecap="round" stroke-linejoin="round"/>
<path d="M28.875 14H24.5C24.2679 14 24.0454 14.0922 23.8813 14.2563C23.7172 14.4204 23.625 14.6429 23.625 14.875V20.125C23.625 20.3571 23.7172 20.5796 23.8813 20.7437C24.0454 20.9078 24.2679 21 24.5 21H26.9903C27.1155 21 27.2393 21.0269 27.3532 21.0789C27.4672 21.1309 27.5686 21.2067 27.6508 21.3013C27.7329 21.3958 27.7938 21.5069 27.8293 21.627C27.8647 21.7472 27.874 21.8735 27.8565 21.9975L27.125 27.125L23.625 28" stroke="url(#paint2_linear_47_1178)" stroke-width="2" stroke-linecap="round" stroke-linejoin="round"/>
</g>
<defs>
<linearGradient id="paint0_linear_47_1178" x1="21" y1="7" x2="21" y2="35.875" gradientUnits="userSpaceOnUse">
<stop stop-color="#55ABC8"/>
<stop offset="1" stop-color="#5E0CE4"/>
</linearGradient>
<linearGradient id="paint1_linear_47_1178" x1="15.75" y1="14" x2="15.75" y2="28" gradientUnits="userSpaceOnUse">
<stop stop-color="#55ABC8"/>
<stop offset="1" stop-color="#5E0CE4"/>
</linearGradient>
<linearGradient id="paint2_linear_47_1178" x1="26.25" y1="14" x2="26.25" y2="28" gradientUnits="userSpaceOnUse">
<stop stop-color="#55ABC8"/>
<stop offset="1" stop-color="#5E0CE4"/>
</linearGradient>
<clipPath id="clip0_47_1178">
<rect width="42" height="42" fill="white"/>
</clipPath>
</defs>
</svg>
