<svg width="24" height="24" viewBox="0 0 24 24" fill="none" xmlns="http://www.w3.org/2000/svg">
<g clip-path="url(#clip0_47_1060)">
<path d="M4 6C4 5.46957 4.21071 4.96086 4.58579 4.58579C4.96086 4.21071 5.46957 4 6 4H18C18.5304 4 19.0391 4.21071 19.4142 4.58579C19.7893 4.96086 20 5.46957 20 6V18C20 18.5304 19.7893 19.0391 19.4142 19.4142C19.0391 19.7893 18.5304 20 18 20H6C5.46957 20 4.96086 19.7893 4.58579 19.4142C4.21071 19.0391 4 18.5304 4 18V6Z" stroke="url(#paint0_linear_47_1060)" stroke-linecap="round" stroke-linejoin="round"/>
<path d="M8 11V16" stroke="url(#paint1_linear_47_1060)" stroke-linecap="round" stroke-linejoin="round"/>
<path d="M8 8V8.00915" stroke="url(#paint2_linear_47_1060)" stroke-linecap="round" stroke-linejoin="round"/>
<path d="M12 16V11" stroke="url(#paint3_linear_47_1060)" stroke-linecap="round" stroke-linejoin="round"/>
<path d="M16 16V13C16 12.4696 15.7893 11.9609 15.4142 11.5858C15.0391 11.2107 14.5304 11 14 11C13.4696 11 12.9609 11.2107 12.5858 11.5858C12.2107 11.9609 12 12.4696 12 13" stroke="url(#paint4_linear_47_1060)" stroke-linecap="round" stroke-linejoin="round"/>
</g>
<defs>
<linearGradient id="paint0_linear_47_1060" x1="12" y1="4" x2="12" y2="20" gradientUnits="userSpaceOnUse">
<stop offset="0.280556" stop-color="#55ABC8"/>
<stop offset="1" stop-color="#5E0CE4"/>
</linearGradient>
<linearGradient id="paint1_linear_47_1060" x1="8.5" y1="11" x2="8.5" y2="16" gradientUnits="userSpaceOnUse">
<stop offset="0.280556" stop-color="#55ABC8"/>
<stop offset="1" stop-color="#5E0CE4"/>
</linearGradient>
<linearGradient id="paint2_linear_47_1060" x1="8.5" y1="8" x2="8.5" y2="8.00915" gradientUnits="userSpaceOnUse">
<stop offset="0.280556" stop-color="#55ABC8"/>
<stop offset="1" stop-color="#5E0CE4"/>
</linearGradient>
<linearGradient id="paint3_linear_47_1060" x1="12.5" y1="11" x2="12.5" y2="16" gradientUnits="userSpaceOnUse">
<stop offset="0.280556" stop-color="#55ABC8"/>
<stop offset="1" stop-color="#5E0CE4"/>
</linearGradient>
<linearGradient id="paint4_linear_47_1060" x1="14" y1="11" x2="14" y2="16" gradientUnits="userSpaceOnUse">
<stop offset="0.280556" stop-color="#55ABC8"/>
<stop offset="1" stop-color="#5E0CE4"/>
</linearGradient>
<clipPath id="clip0_47_1060">
<rect width="24" height="24" fill="white"/>
</clipPath>
</defs>
</svg>
