<svg width="47" height="47" viewBox="0 0 47 47" fill="none" xmlns="http://www.w3.org/2000/svg">
<g clip-path="url(#clip0_41_914)">
<path d="M7.83325 11.7502C7.83325 10.7114 8.2459 9.71518 8.98042 8.98066C9.71493 8.24614 10.7112 7.8335 11.7499 7.8335H35.2499C36.2887 7.8335 37.2849 8.24614 38.0194 8.98066C38.7539 9.71518 39.1666 10.7114 39.1666 11.7502V35.2502C39.1666 36.2889 38.7539 37.2851 38.0194 38.0197C37.2849 38.7542 36.2887 39.1668 35.2499 39.1668H11.7499C10.7112 39.1668 9.71493 38.7542 8.98042 38.0197C8.2459 37.2851 7.83325 36.2889 7.83325 35.2502V11.7502Z" stroke="white" stroke-width="2" stroke-linecap="round" stroke-linejoin="round"/>
<path d="M15.6667 21.5415V31.3332" stroke="white" stroke-width="2" stroke-linecap="round" stroke-linejoin="round"/>
<path d="M15.6667 15.6665V15.6844" stroke="white" stroke-width="2" stroke-linecap="round" stroke-linejoin="round"/>
<path d="M23.5 31.3332V21.5415" stroke="white" stroke-width="2" stroke-linecap="round" stroke-linejoin="round"/>
<path d="M31.3333 31.3332V25.4582C31.3333 24.4194 30.9207 23.4232 30.1862 22.6887C29.4516 21.9542 28.4554 21.5415 27.4167 21.5415C26.3779 21.5415 25.3817 21.9542 24.6472 22.6887C23.9126 23.4232 23.5 24.4194 23.5 25.4582" stroke="white" stroke-width="2" stroke-linecap="round" stroke-linejoin="round"/>
</g>
<defs>
<clipPath id="clip0_41_914">
<rect width="47" height="47" fill="white"/>
</clipPath>
</defs>
</svg>
