<svg width="100" height="100" viewBox="0 0 100 100" fill="none" xmlns="http://www.w3.org/2000/svg">
<g clip-path="url(#clip0_55_41)">
<path d="M12.5 29.1667C12.5 26.9566 13.378 24.837 14.9408 23.2742C16.5036 21.7113 18.6232 20.8334 20.8333 20.8334H79.1667C81.3768 20.8334 83.4964 21.7113 85.0592 23.2742C86.622 24.837 87.5 26.9566 87.5 29.1667V70.8334C87.5 73.0435 86.622 75.1631 85.0592 76.7259C83.4964 78.2887 81.3768 79.1667 79.1667 79.1667H20.8333C18.6232 79.1667 16.5036 78.2887 14.9408 76.7259C13.378 75.1631 12.5 73.0435 12.5 70.8334V29.1667Z" stroke="#606EF0" stroke-width="5" stroke-linecap="round" stroke-linejoin="round"/>
<path d="M12.5 29.1666L50 54.1666L87.5 29.1666" stroke="#606EF0" stroke-width="5" stroke-linecap="round" stroke-linejoin="round"/>
</g>
<defs>
<clipPath id="clip0_55_41">
<rect width="100" height="100" fill="white"/>
</clipPath>
</defs>
</svg>
