<svg width="892" height="143" viewBox="0 0 892 143" fill="none" xmlns="http://www.w3.org/2000/svg">
<path d="M892 78L883 84.9282V71.0718L892 78Z" fill="url(#paint0_linear_39_2)"/>
<path d="M2.87642 35V8.81818H12.2088C14.2457 8.81818 15.9332 9.18892 17.2713 9.9304C18.6094 10.6719 19.6108 11.6861 20.2756 12.973C20.9403 14.2514 21.2727 15.6918 21.2727 17.294C21.2727 18.9048 20.9361 20.3537 20.2628 21.6406C19.598 22.919 18.5923 23.9332 17.2457 24.6832C15.9077 25.4247 14.2244 25.7955 12.196 25.7955H5.77841V22.446H11.8381C13.125 22.446 14.169 22.2244 14.9702 21.7812C15.7713 21.3295 16.3594 20.7159 16.7344 19.9403C17.1094 19.1648 17.2969 18.2827 17.2969 17.294C17.2969 16.3054 17.1094 15.4276 16.7344 14.6605C16.3594 13.8935 15.767 13.2926 14.9574 12.858C14.1563 12.4233 13.0994 12.206 11.7869 12.206H6.8267V35H2.87642ZM25.5969 35V15.3636H29.2915V18.483H29.4961C29.854 17.4261 30.4847 16.5952 31.3881 15.9901C32.3001 15.3764 33.3313 15.0696 34.4819 15.0696C34.7205 15.0696 35.0018 15.0781 35.3256 15.0952C35.658 15.1122 35.918 15.1335 36.1055 15.1591V18.8153C35.9521 18.7727 35.6793 18.7259 35.2873 18.6747C34.8952 18.6151 34.5032 18.5852 34.1112 18.5852C33.2077 18.5852 32.4023 18.777 31.695 19.1605C30.9961 19.5355 30.4421 20.0597 30.033 20.733C29.6239 21.3977 29.4194 22.1562 29.4194 23.0085V35H25.5969ZM46.9815 35.3963C45.1406 35.3963 43.5341 34.9744 42.1619 34.1307C40.7898 33.2869 39.7244 32.1065 38.9659 30.5895C38.2074 29.0724 37.8281 27.2997 37.8281 25.2713C37.8281 23.2344 38.2074 21.4531 38.9659 19.9276C39.7244 18.402 40.7898 17.2173 42.1619 16.3736C43.5341 15.5298 45.1406 15.108 46.9815 15.108C48.8224 15.108 50.429 15.5298 51.8011 16.3736C53.1733 17.2173 54.2386 18.402 54.9972 19.9276C55.7557 21.4531 56.1349 23.2344 56.1349 25.2713C56.1349 27.2997 55.7557 29.0724 54.9972 30.5895C54.2386 32.1065 53.1733 33.2869 51.8011 34.1307C50.429 34.9744 48.8224 35.3963 46.9815 35.3963ZM46.9943 32.1875C48.1875 32.1875 49.1761 31.8722 49.9602 31.2415C50.7443 30.6108 51.3239 29.7713 51.6989 28.723C52.0824 27.6747 52.2741 26.5199 52.2741 25.2585C52.2741 24.0057 52.0824 22.8551 51.6989 21.8068C51.3239 20.75 50.7443 19.902 49.9602 19.2628C49.1761 18.6236 48.1875 18.304 46.9943 18.304C45.7926 18.304 44.7955 18.6236 44.0028 19.2628C43.2188 19.902 42.6349 20.75 42.2514 21.8068C41.8764 22.8551 41.6889 24.0057 41.6889 25.2585C41.6889 26.5199 41.8764 27.6747 42.2514 28.723C42.6349 29.7713 43.2188 30.6108 44.0028 31.2415C44.7955 31.8722 45.7926 32.1875 46.9943 32.1875ZM45.4091 12.7429L48.4006 6.84943H52.4276L48.4645 12.7429H45.4091ZM62.6452 15.3636L66.979 23.0085L71.3512 15.3636H75.5316L69.408 25.1818L75.5827 35H71.4023L66.979 27.6619L62.5685 35H58.3754L64.4862 25.1818L58.4521 15.3636H62.6452ZM79.4563 35V15.3636H83.2788V35H79.4563ZM81.3867 12.3338C80.7219 12.3338 80.1509 12.1122 79.6737 11.669C79.2049 11.2173 78.9705 10.6804 78.9705 10.0582C78.9705 9.42756 79.2049 8.89062 79.6737 8.44744C80.1509 7.99574 80.7219 7.76989 81.3867 7.76989C82.0515 7.76989 82.6183 7.99574 83.087 8.44744C83.5643 8.89062 83.8029 9.42756 83.8029 10.0582C83.8029 10.6804 83.5643 11.2173 83.087 11.669C82.6183 12.1122 82.0515 12.3338 81.3867 12.3338ZM88.4212 35V15.3636H92.0902V18.5597H92.3331C92.7422 17.4773 93.4112 16.6335 94.3402 16.0284C95.2692 15.4148 96.3814 15.108 97.6768 15.108C98.9893 15.108 100.089 15.4148 100.975 16.0284C101.87 16.642 102.531 17.4858 102.957 18.5597H103.161C103.63 17.5114 104.376 16.6761 105.398 16.054C106.421 15.4233 107.64 15.108 109.055 15.108C110.836 15.108 112.289 15.6662 113.414 16.7827C114.548 17.8991 115.114 19.5824 115.114 21.8324V35H111.292V22.1903C111.292 20.8608 110.93 19.8977 110.205 19.3011C109.481 18.7045 108.616 18.4062 107.61 18.4062C106.366 18.4062 105.398 18.7898 104.708 19.5568C104.018 20.3153 103.673 21.2912 103.673 22.4844V35H99.8629V21.9474C99.8629 20.8821 99.5305 20.0256 98.8658 19.3778C98.201 18.7301 97.3359 18.4062 96.2706 18.4062C95.5462 18.4062 94.8771 18.598 94.2635 18.9815C93.6584 19.3565 93.1683 19.8807 92.7933 20.554C92.4268 21.2273 92.2436 22.0071 92.2436 22.8935V35H88.4212ZM128.509 35.3963C126.668 35.3963 125.061 34.9744 123.689 34.1307C122.317 33.2869 121.252 32.1065 120.493 30.5895C119.735 29.0724 119.355 27.2997 119.355 25.2713C119.355 23.2344 119.735 21.4531 120.493 19.9276C121.252 18.402 122.317 17.2173 123.689 16.3736C125.061 15.5298 126.668 15.108 128.509 15.108C130.35 15.108 131.956 15.5298 133.328 16.3736C134.701 17.2173 135.766 18.402 136.525 19.9276C137.283 21.4531 137.662 23.2344 137.662 25.2713C137.662 27.2997 137.283 29.0724 136.525 30.5895C135.766 32.1065 134.701 33.2869 133.328 34.1307C131.956 34.9744 130.35 35.3963 128.509 35.3963ZM128.522 32.1875C129.715 32.1875 130.703 31.8722 131.488 31.2415C132.272 30.6108 132.851 29.7713 133.226 28.723C133.61 27.6747 133.801 26.5199 133.801 25.2585C133.801 24.0057 133.61 22.8551 133.226 21.8068C132.851 20.75 132.272 19.902 131.488 19.2628C130.703 18.6236 129.715 18.304 128.522 18.304C127.32 18.304 126.323 18.6236 125.53 19.2628C124.746 19.902 124.162 20.75 123.779 21.8068C123.404 22.8551 123.216 24.0057 123.216 25.2585C123.216 26.5199 123.404 27.6747 123.779 28.723C124.162 29.7713 124.746 30.6108 125.53 31.2415C126.323 31.8722 127.32 32.1875 128.522 32.1875ZM156.643 20.1577L153.179 20.7713C153.034 20.3281 152.804 19.9062 152.489 19.5057C152.182 19.1051 151.764 18.777 151.236 18.5213C150.707 18.2656 150.047 18.1378 149.254 18.1378C148.172 18.1378 147.268 18.3807 146.544 18.8665C145.82 19.3437 145.457 19.9616 145.457 20.7202C145.457 21.3764 145.7 21.9048 146.186 22.3054C146.672 22.706 147.456 23.0341 148.538 23.2898L151.658 24.0057C153.464 24.4233 154.811 25.0668 155.697 25.9361C156.584 26.8054 157.027 27.9347 157.027 29.3239C157.027 30.5 156.686 31.5483 156.004 32.4688C155.331 33.3807 154.389 34.0966 153.179 34.6165C151.977 35.1364 150.584 35.3963 148.999 35.3963C146.8 35.3963 145.006 34.9276 143.616 33.9901C142.227 33.044 141.375 31.7017 141.06 29.9631L144.754 29.4006C144.984 30.3636 145.457 31.0923 146.173 31.5866C146.889 32.0724 147.822 32.3153 148.973 32.3153C150.226 32.3153 151.227 32.0554 151.977 31.5355C152.727 31.0071 153.102 30.3636 153.102 29.6051C153.102 28.9915 152.872 28.4759 152.412 28.0582C151.96 27.6406 151.266 27.3253 150.328 27.1122L147.004 26.3835C145.172 25.9659 143.817 25.3011 142.939 24.3892C142.07 23.4773 141.635 22.3224 141.635 20.9247C141.635 19.7656 141.959 18.7514 142.607 17.8821C143.254 17.0128 144.149 16.3352 145.291 15.8494C146.433 15.3551 147.741 15.108 149.216 15.108C151.338 15.108 153.009 15.5682 154.227 16.4886C155.446 17.4006 156.251 18.6236 156.643 20.1577ZM171.064 35V8.81818H180.396C182.433 8.81818 184.121 9.18892 185.459 9.9304C186.797 10.6719 187.798 11.6861 188.463 12.973C189.128 14.2514 189.46 15.6918 189.46 17.294C189.46 18.9048 189.124 20.3537 188.45 21.6406C187.786 22.919 186.78 23.9332 185.433 24.6832C184.095 25.4247 182.412 25.7955 180.384 25.7955H173.966V22.446H180.026C181.313 22.446 182.357 22.2244 183.158 21.7812C183.959 21.3295 184.547 20.7159 184.922 19.9403C185.297 19.1648 185.484 18.2827 185.484 17.294C185.484 16.3054 185.297 15.4276 184.922 14.6605C184.547 13.8935 183.955 13.2926 183.145 12.858C182.344 12.4233 181.287 12.206 179.974 12.206H175.014V35H171.064ZM199.323 35.4347C198.079 35.4347 196.954 35.2045 195.948 34.7443C194.942 34.2756 194.146 33.598 193.558 32.7116C192.978 31.8253 192.688 30.7386 192.688 29.4517C192.688 28.3437 192.901 27.4318 193.327 26.7159C193.754 26 194.329 25.4332 195.053 25.0156C195.778 24.598 196.587 24.2827 197.482 24.0696C198.377 23.8565 199.289 23.6946 200.218 23.5838C201.394 23.4474 202.349 23.3366 203.082 23.2514C203.815 23.1577 204.347 23.0085 204.68 22.804C205.012 22.5994 205.178 22.267 205.178 21.8068V21.7173C205.178 20.6009 204.863 19.7358 204.232 19.1222C203.61 18.5085 202.681 18.2017 201.445 18.2017C200.158 18.2017 199.144 18.4872 198.403 19.0582C197.67 19.6207 197.163 20.2472 196.881 20.9375L193.289 20.1193C193.715 18.9261 194.337 17.9631 195.156 17.2301C195.982 16.4886 196.933 15.9517 198.006 15.6193C199.08 15.2784 200.21 15.108 201.394 15.108C202.178 15.108 203.009 15.2017 203.887 15.3892C204.773 15.5682 205.6 15.9006 206.367 16.3864C207.143 16.8722 207.778 17.5668 208.272 18.4702C208.766 19.3651 209.013 20.5284 209.013 21.9602V35H205.281V32.3153H205.127C204.88 32.8097 204.509 33.2955 204.015 33.7727C203.521 34.25 202.886 34.6463 202.11 34.9616C201.335 35.277 200.406 35.4347 199.323 35.4347ZM200.154 32.3665C201.211 32.3665 202.114 32.1577 202.864 31.7401C203.623 31.3224 204.198 30.777 204.59 30.1037C204.991 29.4219 205.191 28.6932 205.191 27.9176V25.3864C205.055 25.5227 204.79 25.6506 204.398 25.7699C204.015 25.8807 203.576 25.9787 203.082 26.0639C202.587 26.1406 202.106 26.2131 201.637 26.2812C201.168 26.3409 200.776 26.392 200.461 26.4347C199.719 26.5284 199.042 26.6861 198.428 26.9077C197.823 27.1293 197.337 27.4489 196.971 27.8665C196.613 28.2756 196.434 28.821 196.434 29.5028C196.434 30.4489 196.783 31.1648 197.482 31.6506C198.181 32.1278 199.072 32.3665 200.154 32.3665ZM228.819 20.1577L225.355 20.7713C225.21 20.3281 224.98 19.9062 224.664 19.5057C224.358 19.1051 223.94 18.777 223.412 18.5213C222.883 18.2656 222.223 18.1378 221.43 18.1378C220.348 18.1378 219.444 18.3807 218.72 18.8665C217.995 19.3437 217.633 19.9616 217.633 20.7202C217.633 21.3764 217.876 21.9048 218.362 22.3054C218.848 22.706 219.632 23.0341 220.714 23.2898L223.833 24.0057C225.64 24.4233 226.987 25.0668 227.873 25.9361C228.76 26.8054 229.203 27.9347 229.203 29.3239C229.203 30.5 228.862 31.5483 228.18 32.4688C227.507 33.3807 226.565 34.0966 225.355 34.6165C224.153 35.1364 222.76 35.3963 221.174 35.3963C218.975 35.3963 217.181 34.9276 215.792 33.9901C214.403 33.044 213.551 31.7017 213.235 29.9631L216.93 29.4006C217.16 30.3636 217.633 31.0923 218.349 31.5866C219.065 32.0724 219.998 32.3153 221.149 32.3153C222.402 32.3153 223.403 32.0554 224.153 31.5355C224.903 31.0071 225.278 30.3636 225.278 29.6051C225.278 28.9915 225.048 28.4759 224.588 28.0582C224.136 27.6406 223.441 27.3253 222.504 27.1122L219.18 26.3835C217.348 25.9659 215.993 25.3011 215.115 24.3892C214.245 23.4773 213.811 22.3224 213.811 20.9247C213.811 19.7656 214.135 18.7514 214.782 17.8821C215.43 17.0128 216.325 16.3352 217.467 15.8494C218.609 15.3551 219.917 15.108 221.392 15.108C223.514 15.108 225.184 15.5682 226.403 16.4886C227.622 17.4006 228.427 18.6236 228.819 20.1577ZM248.12 20.1577L244.656 20.7713C244.511 20.3281 244.281 19.9062 243.965 19.5057C243.658 19.1051 243.241 18.777 242.712 18.5213C242.184 18.2656 241.523 18.1378 240.731 18.1378C239.648 18.1378 238.745 18.3807 238.021 18.8665C237.296 19.3437 236.934 19.9616 236.934 20.7202C236.934 21.3764 237.177 21.9048 237.663 22.3054C238.148 22.706 238.933 23.0341 240.015 23.2898L243.134 24.0057C244.941 24.4233 246.288 25.0668 247.174 25.9361C248.06 26.8054 248.504 27.9347 248.504 29.3239C248.504 30.5 248.163 31.5483 247.481 32.4688C246.808 33.3807 245.866 34.0966 244.656 34.6165C243.454 35.1364 242.06 35.3963 240.475 35.3963C238.276 35.3963 236.482 34.9276 235.093 33.9901C233.704 33.044 232.852 31.7017 232.536 29.9631L236.231 29.4006C236.461 30.3636 236.934 31.0923 237.65 31.5866C238.366 32.0724 239.299 32.3153 240.45 32.3153C241.702 32.3153 242.704 32.0554 243.454 31.5355C244.204 31.0071 244.579 30.3636 244.579 29.6051C244.579 28.9915 244.349 28.4759 243.888 28.0582C243.437 27.6406 242.742 27.3253 241.805 27.1122L238.481 26.3835C236.648 25.9659 235.293 25.3011 234.415 24.3892C233.546 23.4773 233.112 22.3224 233.112 20.9247C233.112 19.7656 233.435 18.7514 234.083 17.8821C234.731 17.0128 235.626 16.3352 236.768 15.8494C237.91 15.3551 239.218 15.108 240.692 15.108C242.815 15.108 244.485 15.5682 245.704 16.4886C246.923 17.4006 247.728 18.6236 248.12 20.1577ZM260.978 35.3963C259.137 35.3963 257.53 34.9744 256.158 34.1307C254.786 33.2869 253.721 32.1065 252.962 30.5895C252.203 29.0724 251.824 27.2997 251.824 25.2713C251.824 23.2344 252.203 21.4531 252.962 19.9276C253.721 18.402 254.786 17.2173 256.158 16.3736C257.53 15.5298 259.137 15.108 260.978 15.108C262.819 15.108 264.425 15.5298 265.797 16.3736C267.169 17.2173 268.235 18.402 268.993 19.9276C269.752 21.4531 270.131 23.2344 270.131 25.2713C270.131 27.2997 269.752 29.0724 268.993 30.5895C268.235 32.1065 267.169 33.2869 265.797 34.1307C264.425 34.9744 262.819 35.3963 260.978 35.3963ZM260.99 32.1875C262.184 32.1875 263.172 31.8722 263.956 31.2415C264.74 30.6108 265.32 29.7713 265.695 28.723C266.078 27.6747 266.27 26.5199 266.27 25.2585C266.27 24.0057 266.078 22.8551 265.695 21.8068C265.32 20.75 264.74 19.902 263.956 19.2628C263.172 18.6236 262.184 18.304 260.99 18.304C259.789 18.304 258.792 18.6236 257.999 19.2628C257.215 19.902 256.631 20.75 256.248 21.8068C255.873 22.8551 255.685 24.0057 255.685 25.2585C255.685 26.5199 255.873 27.6747 256.248 28.723C256.631 29.7713 257.215 30.6108 257.999 31.2415C258.792 31.8722 259.789 32.1875 260.99 32.1875ZM289.112 20.1577L285.648 20.7713C285.503 20.3281 285.273 19.9062 284.957 19.5057C284.651 19.1051 284.233 18.777 283.705 18.5213C283.176 18.2656 282.516 18.1378 281.723 18.1378C280.641 18.1378 279.737 18.3807 279.013 18.8665C278.288 19.3437 277.926 19.9616 277.926 20.7202C277.926 21.3764 278.169 21.9048 278.655 22.3054C279.141 22.706 279.925 23.0341 281.007 23.2898L284.126 24.0057C285.933 24.4233 287.28 25.0668 288.166 25.9361C289.053 26.8054 289.496 27.9347 289.496 29.3239C289.496 30.5 289.155 31.5483 288.473 32.4688C287.8 33.3807 286.858 34.0966 285.648 34.6165C284.446 35.1364 283.053 35.3963 281.467 35.3963C279.268 35.3963 277.474 34.9276 276.085 33.9901C274.696 33.044 273.844 31.7017 273.528 29.9631L277.223 29.4006C277.453 30.3636 277.926 31.0923 278.642 31.5866C279.358 32.0724 280.291 32.3153 281.442 32.3153C282.695 32.3153 283.696 32.0554 284.446 31.5355C285.196 31.0071 285.571 30.3636 285.571 29.6051C285.571 28.9915 285.341 28.4759 284.881 28.0582C284.429 27.6406 283.734 27.3253 282.797 27.1122L279.473 26.3835C277.641 25.9659 276.286 25.3011 275.408 24.3892C274.538 23.4773 274.104 22.3224 274.104 20.9247C274.104 19.7656 274.428 18.7514 275.075 17.8821C275.723 17.0128 276.618 16.3352 277.76 15.8494C278.902 15.3551 280.21 15.108 281.685 15.108C283.807 15.108 285.477 15.5682 286.696 16.4886C287.915 17.4006 288.72 18.6236 289.112 20.1577Z" fill="#FAFAFA"/>
<rect y="76" width="883" height="4" fill="url(#paint1_linear_39_2)"/>
<path d="M54.666 97.8979H57.0879V108.421C57.0879 109.541 56.8249 110.533 56.2988 111.398C55.7728 112.257 55.0332 112.934 54.0801 113.429C53.127 113.919 52.0098 114.164 50.7285 114.164C49.4525 114.164 48.3379 113.919 47.3848 113.429C46.4316 112.934 45.6921 112.257 45.166 111.398C44.64 110.533 44.377 109.541 44.377 108.421V97.8979H46.791V108.226C46.791 108.95 46.9499 109.593 47.2676 110.156C47.5905 110.718 48.0462 111.161 48.6348 111.484C49.2233 111.802 49.9212 111.96 50.7285 111.96C51.541 111.96 52.2415 111.802 52.8301 111.484C53.4238 111.161 53.877 110.718 54.1895 110.156C54.5072 109.593 54.666 108.95 54.666 108.226V97.8979ZM63.0117 97.8979V113.898H60.5977V97.8979H63.0117ZM77.5293 113.898H72.3496V97.8979H77.6934C79.2611 97.8979 80.6074 98.2183 81.7324 98.8589C82.8574 99.4943 83.7194 100.408 84.3184 101.601C84.9225 102.789 85.2246 104.213 85.2246 105.875C85.2246 107.541 84.9199 108.973 84.3105 110.171C83.7064 111.369 82.8314 112.291 81.6855 112.937C80.5397 113.578 79.1543 113.898 77.5293 113.898ZM74.7637 111.789H77.3965C78.6152 111.789 79.6283 111.559 80.4355 111.101C81.2428 110.638 81.847 109.968 82.248 109.093C82.6491 108.213 82.8496 107.14 82.8496 105.875C82.8496 104.619 82.6491 103.554 82.248 102.679C81.8522 101.804 81.2611 101.14 80.4746 100.687C79.6882 100.234 78.7116 100.007 77.5449 100.007H74.7637V111.789ZM93.2109 114.14C92.0286 114.14 91.0104 113.888 90.1563 113.382C89.3073 112.872 88.651 112.156 88.1875 111.234C87.7292 110.307 87.5 109.221 87.5 107.976C87.5 106.747 87.7292 105.664 88.1875 104.726C88.651 103.789 89.2969 103.057 90.125 102.531C90.9583 102.005 91.9323 101.742 93.0469 101.742C93.724 101.742 94.3802 101.854 95.0156 102.078C95.651 102.302 96.2214 102.653 96.7266 103.132C97.2318 103.611 97.6302 104.234 97.9219 105C98.2135 105.76 98.3594 106.684 98.3594 107.773V108.601H88.8203V106.851H96.0703C96.0703 106.236 95.9453 105.692 95.6953 105.218C95.4453 104.739 95.0938 104.361 94.6406 104.085C94.1927 103.809 93.6667 103.671 93.0625 103.671C92.4063 103.671 91.8333 103.833 91.3438 104.156C90.8594 104.473 90.4844 104.89 90.2188 105.406C89.9583 105.916 89.8281 106.471 89.8281 107.07V108.437C89.8281 109.239 89.9688 109.921 90.25 110.484C90.5365 111.046 90.9349 111.476 91.4453 111.773C91.9557 112.065 92.5521 112.21 93.2344 112.21C93.6771 112.21 94.0807 112.148 94.4453 112.023C94.8099 111.893 95.125 111.7 95.3906 111.445C95.6563 111.19 95.8594 110.875 96 110.5L98.2109 110.898C98.0339 111.549 97.7161 112.119 97.2578 112.609C96.8047 113.093 96.2344 113.471 95.5469 113.742C94.8646 114.007 94.0859 114.14 93.2109 114.14ZM109.943 104.828L107.826 105.203C107.738 104.932 107.597 104.674 107.404 104.429C107.217 104.184 106.962 103.984 106.639 103.828C106.316 103.671 105.912 103.593 105.428 103.593C104.766 103.593 104.214 103.742 103.771 104.039C103.329 104.33 103.107 104.708 103.107 105.171C103.107 105.572 103.256 105.895 103.553 106.14C103.85 106.385 104.329 106.585 104.99 106.742L106.896 107.179C108.001 107.434 108.824 107.828 109.365 108.359C109.907 108.89 110.178 109.58 110.178 110.429C110.178 111.148 109.969 111.789 109.553 112.351C109.141 112.908 108.566 113.346 107.826 113.664C107.092 113.981 106.24 114.14 105.271 114.14C103.928 114.14 102.831 113.854 101.982 113.281C101.133 112.703 100.613 111.882 100.42 110.82L102.678 110.476C102.818 111.065 103.107 111.51 103.545 111.812C103.982 112.109 104.553 112.257 105.256 112.257C106.021 112.257 106.633 112.098 107.092 111.781C107.55 111.458 107.779 111.065 107.779 110.601C107.779 110.226 107.639 109.911 107.357 109.656C107.081 109.401 106.657 109.208 106.084 109.078L104.053 108.632C102.933 108.377 102.105 107.971 101.568 107.414C101.037 106.856 100.771 106.151 100.771 105.296C100.771 104.588 100.969 103.968 101.365 103.437C101.761 102.906 102.308 102.492 103.006 102.195C103.704 101.893 104.503 101.742 105.404 101.742C106.701 101.742 107.722 102.023 108.467 102.585C109.212 103.143 109.704 103.89 109.943 104.828ZM112.746 113.898V101.898H115.082V113.898H112.746ZM113.926 100.046C113.52 100.046 113.171 99.911 112.879 99.6401C112.592 99.3641 112.449 99.036 112.449 98.6558C112.449 98.2703 112.592 97.9422 112.879 97.6714C113.171 97.3953 113.52 97.2573 113.926 97.2573C114.332 97.2573 114.678 97.3953 114.965 97.6714C115.257 97.9422 115.402 98.2703 115.402 98.6558C115.402 99.036 115.257 99.3641 114.965 99.6401C114.678 99.911 114.332 100.046 113.926 100.046ZM123.256 118.648C122.303 118.648 121.482 118.523 120.795 118.273C120.113 118.023 119.555 117.692 119.123 117.281C118.691 116.869 118.368 116.419 118.154 115.929L120.162 115.101C120.303 115.33 120.49 115.572 120.725 115.828C120.964 116.088 121.287 116.309 121.693 116.492C122.105 116.674 122.633 116.765 123.279 116.765C124.165 116.765 124.896 116.549 125.475 116.117C126.053 115.69 126.342 115.007 126.342 114.07V111.71H126.193C126.053 111.966 125.85 112.25 125.584 112.562C125.324 112.875 124.964 113.145 124.506 113.375C124.048 113.604 123.451 113.718 122.717 113.718C121.769 113.718 120.915 113.497 120.154 113.054C119.399 112.606 118.8 111.947 118.357 111.078C117.92 110.203 117.701 109.127 117.701 107.851C117.701 106.575 117.917 105.481 118.35 104.57C118.787 103.658 119.386 102.96 120.146 102.476C120.907 101.986 121.769 101.742 122.732 101.742C123.477 101.742 124.079 101.867 124.537 102.117C124.995 102.361 125.352 102.648 125.607 102.976C125.868 103.304 126.068 103.593 126.209 103.843H126.381V101.898H128.67V114.164C128.67 115.195 128.43 116.041 127.951 116.703C127.472 117.364 126.824 117.854 126.006 118.171C125.193 118.489 124.277 118.648 123.256 118.648ZM123.232 111.781C123.904 111.781 124.472 111.625 124.936 111.312C125.404 110.994 125.758 110.541 125.998 109.953C126.243 109.359 126.365 108.648 126.365 107.82C126.365 107.013 126.245 106.302 126.006 105.687C125.766 105.072 125.415 104.593 124.951 104.25C124.488 103.901 123.915 103.726 123.232 103.726C122.529 103.726 121.943 103.908 121.475 104.273C121.006 104.632 120.652 105.122 120.412 105.742C120.178 106.361 120.061 107.054 120.061 107.82C120.061 108.606 120.18 109.296 120.42 109.89C120.66 110.484 121.014 110.947 121.482 111.281C121.956 111.614 122.54 111.781 123.232 111.781ZM134.139 106.773V113.898H131.803V101.898H134.045V103.851H134.193C134.469 103.216 134.902 102.705 135.49 102.32C136.084 101.934 136.831 101.742 137.732 101.742C138.55 101.742 139.266 101.914 139.881 102.257C140.495 102.596 140.972 103.101 141.311 103.773C141.649 104.445 141.818 105.276 141.818 106.265V113.898H139.482V106.546C139.482 105.677 139.256 104.997 138.803 104.507C138.35 104.013 137.727 103.765 136.936 103.765C136.394 103.765 135.912 103.882 135.49 104.117C135.074 104.351 134.743 104.695 134.498 105.148C134.258 105.596 134.139 106.138 134.139 106.773Z" fill="#FAFAFA"/>
<path d="M237.69 113.898V97.8979H243.394C244.633 97.8979 245.662 98.1115 246.479 98.5386C247.302 98.9657 247.917 99.5568 248.323 100.312C248.729 101.062 248.933 101.929 248.933 102.914C248.933 103.893 248.727 104.755 248.315 105.5C247.909 106.239 247.295 106.815 246.472 107.226C245.654 107.638 244.625 107.843 243.386 107.843H239.065V105.765H243.167C243.948 105.765 244.584 105.653 245.073 105.429C245.568 105.205 245.93 104.88 246.159 104.453C246.388 104.026 246.503 103.513 246.503 102.914C246.503 102.309 246.386 101.786 246.151 101.343C245.922 100.901 245.56 100.562 245.065 100.328C244.576 100.088 243.933 99.9683 243.136 99.9683H240.104V113.898H237.69ZM245.589 106.679L249.542 113.898H246.792L242.917 106.679H245.589ZM256.704 114.14C255.522 114.14 254.504 113.888 253.649 113.382C252.8 112.872 252.144 112.156 251.681 111.234C251.222 110.307 250.993 109.221 250.993 107.976C250.993 106.747 251.222 105.664 251.681 104.726C252.144 103.789 252.79 103.057 253.618 102.531C254.451 102.005 255.425 101.742 256.54 101.742C257.217 101.742 257.873 101.854 258.509 102.078C259.144 102.302 259.715 102.653 260.22 103.132C260.725 103.611 261.123 104.234 261.415 105C261.707 105.76 261.853 106.684 261.853 107.773V108.601H252.313V106.851H259.563C259.563 106.236 259.438 105.692 259.188 105.218C258.938 104.739 258.587 104.361 258.134 104.085C257.686 103.809 257.16 103.671 256.556 103.671C255.899 103.671 255.326 103.833 254.837 104.156C254.353 104.473 253.978 104.89 253.712 105.406C253.451 105.916 253.321 106.471 253.321 107.07V108.437C253.321 109.239 253.462 109.921 253.743 110.484C254.03 111.046 254.428 111.476 254.938 111.773C255.449 112.065 256.045 112.21 256.728 112.21C257.17 112.21 257.574 112.148 257.938 112.023C258.303 111.893 258.618 111.7 258.884 111.445C259.149 111.19 259.353 110.875 259.493 110.5L261.704 110.898C261.527 111.549 261.209 112.119 260.751 112.609C260.298 113.093 259.728 113.471 259.04 113.742C258.358 114.007 257.579 114.14 256.704 114.14ZM267.937 114.164C267.176 114.164 266.489 114.023 265.874 113.742C265.259 113.455 264.772 113.041 264.413 112.5C264.059 111.958 263.882 111.294 263.882 110.507C263.882 109.83 264.012 109.273 264.272 108.835C264.533 108.398 264.884 108.052 265.327 107.796C265.77 107.541 266.265 107.348 266.812 107.218C267.358 107.088 267.916 106.989 268.483 106.921C269.202 106.838 269.785 106.77 270.233 106.718C270.681 106.661 271.007 106.57 271.21 106.445C271.413 106.32 271.515 106.117 271.515 105.835V105.781C271.515 105.098 271.322 104.57 270.937 104.195C270.556 103.82 269.989 103.632 269.233 103.632C268.447 103.632 267.827 103.807 267.374 104.156C266.926 104.5 266.616 104.882 266.444 105.304L264.249 104.804C264.509 104.075 264.89 103.486 265.39 103.039C265.895 102.585 266.476 102.257 267.132 102.054C267.788 101.846 268.478 101.742 269.202 101.742C269.681 101.742 270.189 101.799 270.726 101.914C271.267 102.023 271.772 102.226 272.241 102.523C272.715 102.82 273.103 103.244 273.405 103.796C273.707 104.343 273.858 105.054 273.858 105.929V113.898H271.577V112.257H271.483C271.332 112.559 271.106 112.856 270.804 113.148C270.502 113.44 270.114 113.682 269.64 113.875C269.166 114.067 268.598 114.164 267.937 114.164ZM268.444 112.289C269.09 112.289 269.642 112.161 270.101 111.906C270.564 111.651 270.916 111.317 271.155 110.906C271.4 110.489 271.522 110.044 271.522 109.57V108.023C271.439 108.106 271.278 108.184 271.038 108.257C270.804 108.325 270.535 108.385 270.233 108.437C269.931 108.484 269.637 108.528 269.351 108.57C269.064 108.606 268.825 108.638 268.632 108.664C268.179 108.721 267.765 108.817 267.39 108.953C267.02 109.088 266.723 109.283 266.499 109.539C266.28 109.789 266.171 110.122 266.171 110.539C266.171 111.117 266.384 111.554 266.812 111.851C267.239 112.143 267.783 112.289 268.444 112.289ZM282.024 114.14C280.863 114.14 279.863 113.877 279.024 113.351C278.191 112.82 277.55 112.088 277.103 111.156C276.655 110.223 276.431 109.156 276.431 107.953C276.431 106.734 276.66 105.658 277.118 104.726C277.576 103.789 278.222 103.057 279.056 102.531C279.889 102.005 280.871 101.742 282.001 101.742C282.912 101.742 283.725 101.911 284.438 102.25C285.152 102.583 285.728 103.052 286.165 103.656C286.608 104.26 286.871 104.966 286.954 105.773H284.681C284.556 105.21 284.269 104.726 283.821 104.32C283.379 103.914 282.785 103.71 282.04 103.71C281.389 103.71 280.819 103.882 280.329 104.226C279.845 104.565 279.467 105.049 279.196 105.679C278.925 106.304 278.79 107.044 278.79 107.898C278.79 108.773 278.923 109.528 279.188 110.164C279.454 110.799 279.829 111.291 280.313 111.64C280.803 111.989 281.379 112.164 282.04 112.164C282.483 112.164 282.884 112.083 283.243 111.921C283.608 111.755 283.912 111.518 284.157 111.21C284.407 110.903 284.582 110.533 284.681 110.101H286.954C286.871 110.877 286.618 111.57 286.196 112.179C285.774 112.789 285.209 113.268 284.501 113.617C283.798 113.966 282.972 114.14 282.024 114.14ZM295.054 101.898V103.773H288.499V101.898H295.054ZM290.257 99.0229H292.593V110.375C292.593 110.828 292.66 111.169 292.796 111.398C292.931 111.622 293.106 111.776 293.319 111.859C293.538 111.937 293.775 111.976 294.03 111.976C294.218 111.976 294.382 111.963 294.522 111.937C294.663 111.911 294.772 111.89 294.851 111.875L295.272 113.804C295.137 113.856 294.944 113.908 294.694 113.96C294.444 114.018 294.132 114.049 293.757 114.054C293.142 114.065 292.569 113.955 292.038 113.726C291.507 113.497 291.077 113.143 290.749 112.664C290.421 112.184 290.257 111.583 290.257 110.859V99.0229Z" fill="#FAFAFA"/>
<path d="M74.0231 133.909C74.0231 134.983 73.8292 135.911 73.4414 136.693C73.0536 137.475 72.5217 138.079 71.8455 138.503C71.1694 138.927 70.3971 139.139 69.5288 139.139C68.6604 139.139 67.8881 138.927 67.212 138.503C66.5359 138.079 66.0039 137.475 65.6161 136.693C65.2283 135.911 65.0344 134.983 65.0344 133.909C65.0344 132.835 65.2283 131.907 65.6161 131.125C66.0039 130.343 66.5359 129.74 67.212 129.315C67.8881 128.891 68.6604 128.679 69.5288 128.679C70.3971 128.679 71.1694 128.891 71.8455 129.315C72.5217 129.74 73.0536 130.343 73.4414 131.125C73.8292 131.907 74.0231 132.835 74.0231 133.909ZM72.8299 133.909C72.8299 133.027 72.6824 132.283 72.3874 131.677C72.0958 131.07 71.6997 130.611 71.1992 130.3C70.7021 129.988 70.1452 129.832 69.5288 129.832C68.9123 129.832 68.3538 129.988 67.8533 130.3C67.3562 130.611 66.9601 131.07 66.6651 131.677C66.3735 132.283 66.2276 133.027 66.2276 133.909C66.2276 134.791 66.3735 135.535 66.6651 136.141C66.9601 136.748 67.3562 137.207 67.8533 137.518C68.3538 137.83 68.9123 137.986 69.5288 137.986C70.1452 137.986 70.7021 137.83 71.1992 137.518C71.6997 137.207 72.0958 136.748 72.3874 136.141C72.6824 135.535 72.8299 134.791 72.8299 133.909ZM75.9371 139V131.364H77.0707V132.517H77.1502C77.2894 132.139 77.5413 131.833 77.9059 131.597C78.2705 131.362 78.6815 131.244 79.1388 131.244C79.225 131.244 79.3327 131.246 79.462 131.249C79.5913 131.253 79.689 131.258 79.7553 131.264V132.457C79.7156 132.447 79.6244 132.433 79.4819 132.413C79.3427 132.389 79.1952 132.378 79.0394 132.378C78.6682 132.378 78.3368 132.456 78.0451 132.612C77.7567 132.764 77.5281 132.976 77.359 133.248C77.1933 133.516 77.1104 133.823 77.1104 134.168V139H75.9371ZM81.1461 139V131.364H82.3194V139H81.1461ZM81.7427 130.091C81.514 130.091 81.3168 130.013 81.1511 129.857C80.9887 129.701 80.9075 129.514 80.9075 129.295C80.9075 129.077 80.9887 128.889 81.1511 128.734C81.3168 128.578 81.514 128.5 81.7427 128.5C81.9714 128.5 82.167 128.578 82.3294 128.734C82.4951 128.889 82.5779 129.077 82.5779 129.295C82.5779 129.514 82.4951 129.701 82.3294 129.857C82.167 130.013 81.9714 130.091 81.7427 130.091ZM87.5508 142.023C86.984 142.023 86.4968 141.95 86.0891 141.804C85.6815 141.661 85.3417 141.473 85.07 141.237C84.8015 141.005 84.5877 140.757 84.4286 140.491L85.3633 139.835C85.4693 139.974 85.6036 140.134 85.766 140.312C85.9284 140.495 86.1504 140.652 86.4322 140.785C86.7172 140.921 87.0901 140.989 87.5508 140.989C88.1673 140.989 88.676 140.839 89.0771 140.541C89.4781 140.243 89.6786 139.776 89.6786 139.139V137.588H89.5792C89.493 137.727 89.3704 137.9 89.2113 138.105C89.0555 138.307 88.8301 138.488 88.5352 138.647C88.2435 138.803 87.8491 138.881 87.3519 138.881C86.7354 138.881 86.1819 138.735 85.6914 138.443C85.2042 138.152 84.8181 137.727 84.533 137.17C84.2513 136.614 84.1104 135.937 84.1104 135.142C84.1104 134.36 84.248 133.679 84.5231 133.099C84.7982 132.515 85.181 132.065 85.6715 131.746C86.1621 131.425 86.7288 131.264 87.3718 131.264C87.869 131.264 88.2634 131.347 88.555 131.513C88.85 131.675 89.0754 131.861 89.2312 132.07C89.3903 132.275 89.5129 132.444 89.5991 132.577H89.7184V131.364H90.8519V139.219C90.8519 139.875 90.7028 140.409 90.4045 140.82C90.1095 141.234 89.7118 141.537 89.2113 141.729C88.7141 141.925 88.1606 142.023 87.5508 142.023ZM87.511 137.827C87.9817 137.827 88.3794 137.719 88.7042 137.504C89.029 137.288 89.2759 136.978 89.445 136.574C89.614 136.17 89.6985 135.686 89.6985 135.122C89.6985 134.572 89.6156 134.086 89.4499 133.665C89.2842 133.245 89.0389 132.915 88.7141 132.676C88.3893 132.437 87.9883 132.318 87.511 132.318C87.0138 132.318 86.5996 132.444 86.2681 132.696C85.94 132.948 85.6931 133.286 85.5273 133.71C85.3649 134.134 85.2837 134.605 85.2837 135.122C85.2837 135.652 85.3666 136.121 85.5323 136.529C85.7013 136.933 85.9499 137.252 86.2781 137.484C86.6095 137.712 87.0205 137.827 87.511 137.827ZM92.9996 139V131.364H94.1332V132.557H94.2326C94.3917 132.149 94.6486 131.833 95.0032 131.607C95.3578 131.379 95.7837 131.264 96.2809 131.264C96.7847 131.264 97.204 131.379 97.5387 131.607C97.8768 131.833 98.1403 132.149 98.3292 132.557H98.4087C98.6043 132.162 98.8976 131.849 99.2887 131.617C99.6798 131.382 100.149 131.264 100.696 131.264C101.378 131.264 101.937 131.478 102.371 131.906C102.805 132.33 103.022 132.991 103.022 133.889V139H101.849V133.889C101.849 133.326 101.695 132.923 101.387 132.681C101.078 132.439 100.716 132.318 100.298 132.318C99.761 132.318 99.3451 132.481 99.0501 132.805C98.7551 133.127 98.6076 133.535 98.6076 134.028V139H97.4144V133.77C97.4144 133.336 97.2736 132.986 96.9918 132.721C96.7101 132.452 96.3472 132.318 95.9031 132.318C95.5981 132.318 95.3131 132.399 95.0479 132.562C94.7861 132.724 94.574 132.95 94.4116 133.238C94.2525 133.523 94.1729 133.853 94.1729 134.227V139H92.9996ZM107.415 139.179C106.931 139.179 106.492 139.088 106.097 138.906C105.703 138.72 105.39 138.453 105.158 138.105C104.926 137.754 104.81 137.33 104.81 136.832C104.81 136.395 104.896 136.04 105.068 135.768C105.241 135.493 105.471 135.278 105.759 135.122C106.048 134.966 106.366 134.85 106.714 134.774C107.065 134.695 107.418 134.632 107.773 134.585C108.237 134.526 108.613 134.481 108.901 134.451C109.193 134.418 109.405 134.363 109.538 134.287C109.674 134.211 109.741 134.078 109.741 133.889V133.849C109.741 133.359 109.607 132.978 109.339 132.706C109.074 132.434 108.671 132.298 108.131 132.298C107.571 132.298 107.131 132.421 106.813 132.666C106.495 132.911 106.271 133.173 106.142 133.452L105.028 133.054C105.227 132.59 105.492 132.229 105.824 131.97C106.159 131.708 106.523 131.526 106.918 131.423C107.315 131.317 107.706 131.264 108.091 131.264C108.336 131.264 108.618 131.294 108.936 131.354C109.258 131.41 109.567 131.528 109.866 131.707C110.167 131.886 110.418 132.156 110.616 132.517C110.815 132.878 110.915 133.362 110.915 133.969V139H109.741V137.966H109.682C109.602 138.132 109.47 138.309 109.284 138.498C109.098 138.687 108.852 138.848 108.543 138.98C108.235 139.113 107.859 139.179 107.415 139.179ZM107.594 138.125C108.058 138.125 108.449 138.034 108.767 137.852C109.089 137.669 109.33 137.434 109.493 137.146C109.659 136.857 109.741 136.554 109.741 136.236V135.162C109.692 135.222 109.582 135.276 109.413 135.326C109.248 135.372 109.055 135.414 108.837 135.45C108.621 135.483 108.411 135.513 108.205 135.54C108.003 135.563 107.839 135.583 107.713 135.599C107.408 135.639 107.123 135.704 106.858 135.793C106.596 135.879 106.384 136.01 106.222 136.186C106.063 136.358 105.983 136.594 105.983 136.892C105.983 137.3 106.134 137.608 106.435 137.817C106.74 138.022 107.126 138.125 107.594 138.125ZM113.056 139V131.364H114.23V139H113.056ZM113.653 130.091C113.424 130.091 113.227 130.013 113.061 129.857C112.899 129.701 112.818 129.514 112.818 129.295C112.818 129.077 112.899 128.889 113.061 128.734C113.227 128.578 113.424 128.5 113.653 128.5C113.882 128.5 114.077 128.578 114.24 128.734C114.405 128.889 114.488 129.077 114.488 129.295C114.488 129.514 114.405 129.701 114.24 129.857C114.077 130.013 113.882 130.091 113.653 130.091ZM119.262 139.159C118.626 139.159 118.064 138.998 117.577 138.677C117.089 138.352 116.708 137.895 116.433 137.305C116.158 136.711 116.021 136.01 116.021 135.202C116.021 134.4 116.158 133.704 116.433 133.114C116.708 132.524 117.091 132.068 117.582 131.746C118.072 131.425 118.639 131.264 119.282 131.264C119.779 131.264 120.172 131.347 120.46 131.513C120.752 131.675 120.974 131.861 121.126 132.07C121.282 132.275 121.403 132.444 121.489 132.577H121.589V128.818H122.762V139H121.629V137.827H121.489C121.403 137.966 121.281 138.142 121.121 138.354C120.962 138.562 120.735 138.75 120.44 138.915C120.145 139.078 119.753 139.159 119.262 139.159ZM119.421 138.105C119.892 138.105 120.29 137.982 120.614 137.737C120.939 137.489 121.186 137.146 121.355 136.708C121.524 136.267 121.609 135.759 121.609 135.182C121.609 134.612 121.526 134.113 121.36 133.685C121.194 133.254 120.949 132.92 120.624 132.681C120.299 132.439 119.898 132.318 119.421 132.318C118.924 132.318 118.51 132.446 118.178 132.701C117.85 132.953 117.603 133.296 117.438 133.73C117.275 134.161 117.194 134.645 117.194 135.182C117.194 135.725 117.277 136.219 117.442 136.663C117.612 137.104 117.86 137.455 118.188 137.717C118.52 137.976 118.931 138.105 119.421 138.105Z" fill="#FAFAFA"/>
<path d="M247.023 133.909C247.023 134.983 246.829 135.911 246.441 136.693C246.054 137.475 245.522 138.079 244.846 138.503C244.169 138.927 243.397 139.139 242.529 139.139C241.66 139.139 240.888 138.927 240.212 138.503C239.536 138.079 239.004 137.475 238.616 136.693C238.228 135.911 238.034 134.983 238.034 133.909C238.034 132.835 238.228 131.907 238.616 131.125C239.004 130.343 239.536 129.74 240.212 129.315C240.888 128.891 241.66 128.679 242.529 128.679C243.397 128.679 244.169 128.891 244.846 129.315C245.522 129.74 246.054 130.343 246.441 131.125C246.829 131.907 247.023 132.835 247.023 133.909ZM245.83 133.909C245.83 133.027 245.682 132.283 245.387 131.677C245.096 131.07 244.7 130.611 244.199 130.3C243.702 129.988 243.145 129.832 242.529 129.832C241.912 129.832 241.354 129.988 240.853 130.3C240.356 130.611 239.96 131.07 239.665 131.677C239.373 132.283 239.228 133.027 239.228 133.909C239.228 134.791 239.373 135.535 239.665 136.141C239.96 136.748 240.356 137.207 240.853 137.518C241.354 137.83 241.912 137.986 242.529 137.986C243.145 137.986 243.702 137.83 244.199 137.518C244.7 137.207 245.096 136.748 245.387 136.141C245.682 135.535 245.83 134.791 245.83 133.909ZM248.937 139V131.364H250.071V132.517H250.15C250.289 132.139 250.541 131.833 250.906 131.597C251.27 131.362 251.681 131.244 252.139 131.244C252.225 131.244 252.333 131.246 252.462 131.249C252.591 131.253 252.689 131.258 252.755 131.264V132.457C252.716 132.447 252.624 132.433 252.482 132.413C252.343 132.389 252.195 132.378 252.039 132.378C251.668 132.378 251.337 132.456 251.045 132.612C250.757 132.764 250.528 132.976 250.359 133.248C250.193 133.516 250.11 133.823 250.11 134.168V139H248.937ZM254.146 139V131.364H255.319V139H254.146ZM254.743 130.091C254.514 130.091 254.317 130.013 254.151 129.857C253.989 129.701 253.907 129.514 253.907 129.295C253.907 129.077 253.989 128.889 254.151 128.734C254.317 128.578 254.514 128.5 254.743 128.5C254.971 128.5 255.167 128.578 255.329 128.734C255.495 128.889 255.578 129.077 255.578 129.295C255.578 129.514 255.495 129.701 255.329 129.857C255.167 130.013 254.971 130.091 254.743 130.091ZM260.551 142.023C259.984 142.023 259.497 141.95 259.089 141.804C258.681 141.661 258.342 141.473 258.07 141.237C257.801 141.005 257.588 140.757 257.429 140.491L258.363 139.835C258.469 139.974 258.604 140.134 258.766 140.312C258.928 140.495 259.15 140.652 259.432 140.785C259.717 140.921 260.09 140.989 260.551 140.989C261.167 140.989 261.676 140.839 262.077 140.541C262.478 140.243 262.679 139.776 262.679 139.139V137.588H262.579C262.493 137.727 262.37 137.9 262.211 138.105C262.056 138.307 261.83 138.488 261.535 138.647C261.243 138.803 260.849 138.881 260.352 138.881C259.735 138.881 259.182 138.735 258.691 138.443C258.204 138.152 257.818 137.727 257.533 137.17C257.251 136.614 257.11 135.937 257.11 135.142C257.11 134.36 257.248 133.679 257.523 133.099C257.798 132.515 258.181 132.065 258.672 131.746C259.162 131.425 259.729 131.264 260.372 131.264C260.869 131.264 261.263 131.347 261.555 131.513C261.85 131.675 262.075 131.861 262.231 132.07C262.39 132.275 262.513 132.444 262.599 132.577H262.718V131.364H263.852V139.219C263.852 139.875 263.703 140.409 263.404 140.82C263.109 141.234 262.712 141.537 262.211 141.729C261.714 141.925 261.161 142.023 260.551 142.023ZM260.511 137.827C260.982 137.827 261.379 137.719 261.704 137.504C262.029 137.288 262.276 136.978 262.445 136.574C262.614 136.17 262.699 135.686 262.699 135.122C262.699 134.572 262.616 134.086 262.45 133.665C262.284 133.245 262.039 132.915 261.714 132.676C261.389 132.437 260.988 132.318 260.511 132.318C260.014 132.318 259.6 132.444 259.268 132.696C258.94 132.948 258.693 133.286 258.527 133.71C258.365 134.134 258.284 134.605 258.284 135.122C258.284 135.652 258.367 136.121 258.532 136.529C258.701 136.933 258.95 137.252 259.278 137.484C259.609 137.712 260.02 137.827 260.511 137.827ZM266 139V131.364H267.133V132.557H267.233C267.392 132.149 267.649 131.833 268.003 131.607C268.358 131.379 268.784 131.264 269.281 131.264C269.785 131.264 270.204 131.379 270.539 131.607C270.877 131.833 271.14 132.149 271.329 132.557H271.409C271.604 132.162 271.898 131.849 272.289 131.617C272.68 131.382 273.149 131.264 273.696 131.264C274.378 131.264 274.937 131.478 275.371 131.906C275.805 132.33 276.022 132.991 276.022 133.889V139H274.849V133.889C274.849 133.326 274.695 132.923 274.387 132.681C274.078 132.439 273.716 132.318 273.298 132.318C272.761 132.318 272.345 132.481 272.05 132.805C271.755 133.127 271.608 133.535 271.608 134.028V139H270.414V133.77C270.414 133.336 270.274 132.986 269.992 132.721C269.71 132.452 269.347 132.318 268.903 132.318C268.598 132.318 268.313 132.399 268.048 132.562C267.786 132.724 267.574 132.95 267.412 133.238C267.252 133.523 267.173 133.853 267.173 134.227V139H266ZM280.415 139.179C279.931 139.179 279.492 139.088 279.097 138.906C278.703 138.72 278.39 138.453 278.158 138.105C277.926 137.754 277.81 137.33 277.81 136.832C277.81 136.395 277.896 136.04 278.068 135.768C278.241 135.493 278.471 135.278 278.759 135.122C279.048 134.966 279.366 134.85 279.714 134.774C280.065 134.695 280.418 134.632 280.773 134.585C281.237 134.526 281.613 134.481 281.901 134.451C282.193 134.418 282.405 134.363 282.538 134.287C282.674 134.211 282.741 134.078 282.741 133.889V133.849C282.741 133.359 282.607 132.978 282.339 132.706C282.074 132.434 281.671 132.298 281.131 132.298C280.571 132.298 280.131 132.421 279.813 132.666C279.495 132.911 279.271 133.173 279.142 133.452L278.028 133.054C278.227 132.59 278.492 132.229 278.824 131.97C279.159 131.708 279.523 131.526 279.918 131.423C280.315 131.317 280.706 131.264 281.091 131.264C281.336 131.264 281.618 131.294 281.936 131.354C282.258 131.41 282.567 131.528 282.866 131.707C283.167 131.886 283.418 132.156 283.616 132.517C283.815 132.878 283.915 133.362 283.915 133.969V139H282.741V137.966H282.682C282.602 138.132 282.47 138.309 282.284 138.498C282.098 138.687 281.852 138.848 281.543 138.98C281.235 139.113 280.859 139.179 280.415 139.179ZM280.594 138.125C281.058 138.125 281.449 138.034 281.767 137.852C282.089 137.669 282.33 137.434 282.493 137.146C282.659 136.857 282.741 136.554 282.741 136.236V135.162C282.692 135.222 282.582 135.276 282.413 135.326C282.248 135.372 282.055 135.414 281.837 135.45C281.621 135.483 281.411 135.513 281.205 135.54C281.003 135.563 280.839 135.583 280.713 135.599C280.408 135.639 280.123 135.704 279.858 135.793C279.596 135.879 279.384 136.01 279.222 136.186C279.063 136.358 278.983 136.594 278.983 136.892C278.983 137.3 279.134 137.608 279.435 137.817C279.74 138.022 280.126 138.125 280.594 138.125ZM286.056 139V131.364H287.23V139H286.056ZM286.653 130.091C286.424 130.091 286.227 130.013 286.061 129.857C285.899 129.701 285.818 129.514 285.818 129.295C285.818 129.077 285.899 128.889 286.061 128.734C286.227 128.578 286.424 128.5 286.653 128.5C286.882 128.5 287.077 128.578 287.24 128.734C287.405 128.889 287.488 129.077 287.488 129.295C287.488 129.514 287.405 129.701 287.24 129.857C287.077 130.013 286.882 130.091 286.653 130.091ZM292.262 139.159C291.626 139.159 291.064 138.998 290.577 138.677C290.089 138.352 289.708 137.895 289.433 137.305C289.158 136.711 289.021 136.01 289.021 135.202C289.021 134.4 289.158 133.704 289.433 133.114C289.708 132.524 290.091 132.068 290.582 131.746C291.072 131.425 291.639 131.264 292.282 131.264C292.779 131.264 293.172 131.347 293.46 131.513C293.752 131.675 293.974 131.861 294.126 132.07C294.282 132.275 294.403 132.444 294.489 132.577H294.589V128.818H295.762V139H294.629V137.827H294.489C294.403 137.966 294.281 138.142 294.121 138.354C293.962 138.562 293.735 138.75 293.44 138.915C293.145 139.078 292.753 139.159 292.262 139.159ZM292.421 138.105C292.892 138.105 293.29 137.982 293.614 137.737C293.939 137.489 294.186 137.146 294.355 136.708C294.524 136.267 294.609 135.759 294.609 135.182C294.609 134.612 294.526 134.113 294.36 133.685C294.194 133.254 293.949 132.92 293.624 132.681C293.299 132.439 292.898 132.318 292.421 132.318C291.924 132.318 291.51 132.446 291.178 132.701C290.85 132.953 290.603 133.296 290.438 133.73C290.275 134.161 290.194 134.645 290.194 135.182C290.194 135.725 290.277 136.219 290.442 136.663C290.612 137.104 290.86 137.455 291.188 137.717C291.52 137.976 291.931 138.105 292.421 138.105Z" fill="#FAFAFA"/>
<circle cx="93.0003" cy="78.0005" r="6.99574" transform="rotate(-89.9626 93.0003 78.0005)" fill="url(#paint2_linear_39_2)"/>
<circle cx="266" cy="78.0005" r="6.99574" transform="rotate(-89.9626 266 78.0005)" fill="url(#paint3_linear_39_2)"/>
<path d="M376.359 100.078V98H388.742V100.078H383.75V114H381.344V100.078H376.359ZM394.723 114.242C393.54 114.242 392.522 113.99 391.668 113.484C390.819 112.974 390.163 112.258 389.699 111.336C389.241 110.409 389.012 109.323 389.012 108.078C389.012 106.849 389.241 105.766 389.699 104.828C390.163 103.891 390.809 103.159 391.637 102.633C392.47 102.107 393.444 101.844 394.559 101.844C395.236 101.844 395.892 101.956 396.527 102.18C397.163 102.404 397.733 102.755 398.238 103.234C398.743 103.714 399.142 104.336 399.434 105.102C399.725 105.862 399.871 106.786 399.871 107.875V108.703H390.332V106.953H397.582C397.582 106.339 397.457 105.794 397.207 105.32C396.957 104.841 396.605 104.464 396.152 104.187C395.704 103.911 395.178 103.773 394.574 103.773C393.918 103.773 393.345 103.935 392.855 104.258C392.371 104.576 391.996 104.992 391.73 105.508C391.47 106.018 391.34 106.573 391.34 107.172V108.539C391.34 109.341 391.48 110.023 391.762 110.586C392.048 111.148 392.447 111.578 392.957 111.875C393.467 112.167 394.064 112.312 394.746 112.312C395.189 112.312 395.592 112.25 395.957 112.125C396.322 111.995 396.637 111.802 396.902 111.547C397.168 111.292 397.371 110.977 397.512 110.602L399.723 111C399.546 111.651 399.228 112.221 398.77 112.711C398.316 113.195 397.746 113.573 397.059 113.844C396.376 114.109 395.598 114.242 394.723 114.242ZM407.518 114.242C406.356 114.242 405.356 113.979 404.518 113.453C403.684 112.922 403.044 112.19 402.596 111.258C402.148 110.326 401.924 109.258 401.924 108.055C401.924 106.836 402.153 105.76 402.611 104.828C403.07 103.891 403.715 103.159 404.549 102.633C405.382 102.107 406.364 101.844 407.494 101.844C408.406 101.844 409.218 102.013 409.932 102.352C410.645 102.685 411.221 103.154 411.658 103.758C412.101 104.362 412.364 105.068 412.447 105.875H410.174C410.049 105.312 409.762 104.828 409.314 104.422C408.872 104.016 408.278 103.812 407.533 103.812C406.882 103.812 406.312 103.984 405.822 104.328C405.338 104.667 404.96 105.151 404.689 105.781C404.419 106.406 404.283 107.146 404.283 108C404.283 108.875 404.416 109.63 404.682 110.266C404.947 110.901 405.322 111.393 405.807 111.742C406.296 112.091 406.872 112.266 407.533 112.266C407.976 112.266 408.377 112.185 408.736 112.023C409.101 111.857 409.406 111.62 409.65 111.312C409.9 111.005 410.075 110.635 410.174 110.203H412.447C412.364 110.979 412.111 111.672 411.689 112.281C411.268 112.891 410.702 113.37 409.994 113.719C409.291 114.068 408.465 114.242 407.518 114.242ZM417.281 106.875V114H414.945V102H417.187V103.953H417.336C417.612 103.318 418.044 102.807 418.633 102.422C419.227 102.036 419.974 101.844 420.875 101.844C421.693 101.844 422.409 102.016 423.023 102.359C423.638 102.698 424.115 103.203 424.453 103.875C424.792 104.547 424.961 105.378 424.961 106.367V114H422.625V106.648C422.625 105.779 422.398 105.099 421.945 104.609C421.492 104.115 420.87 103.867 420.078 103.867C419.536 103.867 419.055 103.984 418.633 104.219C418.216 104.453 417.885 104.797 417.641 105.25C417.401 105.698 417.281 106.24 417.281 106.875ZM433.148 114.242C432.023 114.242 431.042 113.984 430.203 113.469C429.365 112.953 428.714 112.232 428.25 111.305C427.786 110.378 427.555 109.294 427.555 108.055C427.555 106.81 427.786 105.721 428.25 104.789C428.714 103.857 429.365 103.133 430.203 102.617C431.042 102.102 432.023 101.844 433.148 101.844C434.273 101.844 435.255 102.102 436.094 102.617C436.932 103.133 437.583 103.857 438.047 104.789C438.51 105.721 438.742 106.81 438.742 108.055C438.742 109.294 438.51 110.378 438.047 111.305C437.583 112.232 436.932 112.953 436.094 113.469C435.255 113.984 434.273 114.242 433.148 114.242ZM433.156 112.281C433.885 112.281 434.49 112.089 434.969 111.703C435.448 111.318 435.802 110.805 436.031 110.164C436.266 109.523 436.383 108.818 436.383 108.047C436.383 107.281 436.266 106.578 436.031 105.937C435.802 105.292 435.448 104.773 434.969 104.383C434.49 103.992 433.885 103.797 433.156 103.797C432.422 103.797 431.813 103.992 431.328 104.383C430.849 104.773 430.492 105.292 430.258 105.937C430.029 106.578 429.914 107.281 429.914 108.047C429.914 108.818 430.029 109.523 430.258 110.164C430.492 110.805 430.849 111.318 431.328 111.703C431.813 112.089 432.422 112.281 433.156 112.281ZM432.188 100.398L434.016 96.7969H436.477L434.055 100.398H432.188ZM443.686 98V114H441.35V98H443.686ZM451.883 114.242C450.758 114.242 449.776 113.984 448.938 113.469C448.099 112.953 447.448 112.232 446.984 111.305C446.521 110.378 446.289 109.294 446.289 108.055C446.289 106.81 446.521 105.721 446.984 104.789C447.448 103.857 448.099 103.133 448.938 102.617C449.776 102.102 450.758 101.844 451.883 101.844C453.008 101.844 453.99 102.102 454.828 102.617C455.667 103.133 456.318 103.857 456.781 104.789C457.245 105.721 457.477 106.81 457.477 108.055C457.477 109.294 457.245 110.378 456.781 111.305C456.318 112.232 455.667 112.953 454.828 113.469C453.99 113.984 453.008 114.242 451.883 114.242ZM451.891 112.281C452.62 112.281 453.224 112.089 453.703 111.703C454.182 111.318 454.536 110.805 454.766 110.164C455 109.523 455.117 108.818 455.117 108.047C455.117 107.281 455 106.578 454.766 105.937C454.536 105.292 454.182 104.773 453.703 104.383C453.224 103.992 452.62 103.797 451.891 103.797C451.156 103.797 450.547 103.992 450.063 104.383C449.583 104.773 449.227 105.292 448.992 105.937C448.763 106.578 448.648 107.281 448.648 108.047C448.648 108.818 448.763 109.523 448.992 110.164C449.227 110.805 449.583 111.318 450.063 111.703C450.547 112.089 451.156 112.281 451.891 112.281ZM465.115 118.75C464.162 118.75 463.342 118.625 462.654 118.375C461.972 118.125 461.415 117.794 460.982 117.383C460.55 116.971 460.227 116.521 460.014 116.031L462.021 115.203C462.162 115.432 462.35 115.674 462.584 115.93C462.824 116.19 463.146 116.411 463.553 116.594C463.964 116.776 464.493 116.867 465.139 116.867C466.024 116.867 466.756 116.651 467.334 116.219C467.912 115.792 468.201 115.109 468.201 114.172V111.812H468.053C467.912 112.068 467.709 112.352 467.443 112.664C467.183 112.977 466.824 113.247 466.365 113.477C465.907 113.706 465.311 113.82 464.576 113.82C463.628 113.82 462.774 113.599 462.014 113.156C461.258 112.708 460.66 112.049 460.217 111.18C459.779 110.305 459.561 109.229 459.561 107.953C459.561 106.677 459.777 105.583 460.209 104.672C460.646 103.76 461.245 103.062 462.006 102.578C462.766 102.089 463.628 101.844 464.592 101.844C465.337 101.844 465.938 101.969 466.396 102.219C466.855 102.464 467.212 102.75 467.467 103.078C467.727 103.406 467.928 103.695 468.068 103.945H468.24V102H470.529V114.266C470.529 115.297 470.29 116.143 469.811 116.805C469.331 117.466 468.683 117.956 467.865 118.273C467.053 118.591 466.136 118.75 465.115 118.75ZM465.092 111.883C465.764 111.883 466.331 111.727 466.795 111.414C467.264 111.096 467.618 110.643 467.857 110.055C468.102 109.461 468.225 108.75 468.225 107.922C468.225 107.115 468.105 106.404 467.865 105.789C467.626 105.174 467.274 104.695 466.811 104.352C466.347 104.003 465.774 103.828 465.092 103.828C464.389 103.828 463.803 104.01 463.334 104.375C462.865 104.734 462.511 105.224 462.271 105.844C462.037 106.464 461.92 107.156 461.92 107.922C461.92 108.708 462.04 109.398 462.279 109.992C462.519 110.586 462.873 111.049 463.342 111.383C463.816 111.716 464.399 111.883 465.092 111.883ZM478.717 114.242C477.592 114.242 476.61 113.984 475.771 113.469C474.933 112.953 474.282 112.232 473.818 111.305C473.355 110.378 473.123 109.294 473.123 108.055C473.123 106.81 473.355 105.721 473.818 104.789C474.282 103.857 474.933 103.133 475.771 102.617C476.61 102.102 477.592 101.844 478.717 101.844C479.842 101.844 480.824 102.102 481.662 102.617C482.501 103.133 483.152 103.857 483.615 104.789C484.079 105.721 484.311 106.81 484.311 108.055C484.311 109.294 484.079 110.378 483.615 111.305C483.152 112.232 482.501 112.953 481.662 113.469C480.824 113.984 479.842 114.242 478.717 114.242ZM478.725 112.281C479.454 112.281 480.058 112.089 480.537 111.703C481.016 111.318 481.37 110.805 481.6 110.164C481.834 109.523 481.951 108.818 481.951 108.047C481.951 107.281 481.834 106.578 481.6 105.937C481.37 105.292 481.016 104.773 480.537 104.383C480.058 103.992 479.454 103.797 478.725 103.797C477.99 103.797 477.381 103.992 476.896 104.383C476.417 104.773 476.061 105.292 475.826 105.937C475.597 106.578 475.482 107.281 475.482 108.047C475.482 108.818 475.597 109.523 475.826 110.164C476.061 110.805 476.417 111.318 476.896 111.703C477.381 112.089 477.99 112.281 478.725 112.281ZM494.279 114H491.717L497.475 98H500.264L506.021 114H503.459L498.936 100.906H498.811L494.279 114ZM494.709 107.734H503.021V109.766H494.709V107.734ZM513.512 114H508.332V98H513.676C515.243 98 516.59 98.3203 517.715 98.9609C518.84 99.5964 519.702 100.51 520.301 101.703C520.905 102.891 521.207 104.315 521.207 105.977C521.207 107.643 520.902 109.076 520.293 110.273C519.689 111.471 518.814 112.393 517.668 113.039C516.522 113.68 515.137 114 513.512 114ZM510.746 111.891H513.379C514.598 111.891 515.611 111.661 516.418 111.203C517.225 110.74 517.829 110.07 518.23 109.195C518.632 108.315 518.832 107.242 518.832 105.977C518.832 104.721 518.632 103.656 518.23 102.781C517.835 101.906 517.243 101.242 516.457 100.789C515.671 100.336 514.694 100.109 513.527 100.109H510.746V111.891ZM532.936 102.203C532.852 101.464 532.508 100.891 531.904 100.484C531.3 100.073 530.54 99.8672 529.623 99.8672C528.967 99.8672 528.399 99.9714 527.92 100.18C527.441 100.383 527.068 100.664 526.803 101.023C526.542 101.378 526.412 101.781 526.412 102.234C526.412 102.615 526.501 102.943 526.678 103.219C526.86 103.495 527.097 103.727 527.389 103.914C527.686 104.096 528.003 104.25 528.342 104.375C528.68 104.495 529.006 104.594 529.318 104.672L530.881 105.078C531.391 105.203 531.915 105.372 532.451 105.586C532.988 105.799 533.485 106.081 533.943 106.43C534.402 106.779 534.771 107.211 535.053 107.727C535.339 108.242 535.482 108.859 535.482 109.578C535.482 110.484 535.248 111.289 534.779 111.992C534.316 112.695 533.641 113.25 532.756 113.656C531.876 114.063 530.811 114.266 529.561 114.266C528.363 114.266 527.326 114.076 526.451 113.695C525.576 113.315 524.891 112.776 524.396 112.078C523.902 111.375 523.628 110.542 523.576 109.578H525.998C526.045 110.156 526.232 110.638 526.561 111.023C526.894 111.404 527.318 111.687 527.834 111.875C528.355 112.057 528.925 112.148 529.545 112.148C530.227 112.148 530.834 112.042 531.365 111.828C531.902 111.609 532.324 111.307 532.631 110.922C532.938 110.531 533.092 110.076 533.092 109.555C533.092 109.081 532.956 108.693 532.686 108.391C532.42 108.089 532.058 107.839 531.6 107.641C531.146 107.443 530.633 107.268 530.061 107.117L528.17 106.602C526.889 106.253 525.873 105.74 525.123 105.062C524.378 104.385 524.006 103.49 524.006 102.375C524.006 101.453 524.256 100.648 524.756 99.9609C525.256 99.2734 525.933 98.7396 526.787 98.3594C527.641 97.974 528.605 97.7812 529.678 97.7812C530.761 97.7812 531.717 97.9714 532.545 98.3516C533.378 98.7318 534.035 99.2552 534.514 99.9219C534.993 100.583 535.243 101.344 535.264 102.203H532.936Z" fill="#FAFAFA"/>
<path d="M421.901 139V128.818H425.461C426.17 128.818 426.755 128.941 427.216 129.186C427.676 129.428 428.019 129.754 428.245 130.165C428.47 130.573 428.583 131.026 428.583 131.523C428.583 131.96 428.505 132.321 428.349 132.607C428.197 132.892 427.994 133.117 427.743 133.283C427.494 133.448 427.224 133.571 426.932 133.651V133.75C427.244 133.77 427.557 133.879 427.872 134.078C428.187 134.277 428.45 134.562 428.662 134.933C428.874 135.304 428.98 135.759 428.98 136.295C428.98 136.806 428.864 137.265 428.632 137.673C428.4 138.08 428.034 138.403 427.534 138.642C427.033 138.881 426.382 139 425.58 139H421.901ZM423.134 137.906H425.58C426.385 137.906 426.957 137.75 427.295 137.439C427.636 137.124 427.807 136.743 427.807 136.295C427.807 135.951 427.719 135.633 427.544 135.341C427.368 135.046 427.118 134.811 426.793 134.635C426.468 134.456 426.084 134.366 425.64 134.366H423.134V137.906ZM423.134 133.293H425.421C425.792 133.293 426.127 133.22 426.425 133.074C426.727 132.928 426.965 132.723 427.141 132.457C427.32 132.192 427.409 131.881 427.409 131.523C427.409 131.075 427.254 130.696 426.942 130.384C426.631 130.069 426.137 129.912 425.461 129.912H423.134V133.293ZM434.049 139.159C433.313 139.159 432.679 138.997 432.145 138.672C431.615 138.344 431.205 137.886 430.917 137.3C430.632 136.71 430.489 136.024 430.489 135.241C430.489 134.459 430.632 133.77 430.917 133.173C431.205 132.573 431.606 132.106 432.12 131.771C432.637 131.433 433.24 131.264 433.93 131.264C434.327 131.264 434.72 131.33 435.108 131.463C435.496 131.596 435.849 131.811 436.167 132.109C436.485 132.404 436.739 132.795 436.928 133.283C437.116 133.77 437.211 134.37 437.211 135.082V135.58H431.325V134.565H436.018C436.018 134.134 435.932 133.75 435.759 133.412C435.59 133.074 435.348 132.807 435.033 132.612C434.722 132.416 434.354 132.318 433.93 132.318C433.462 132.318 433.058 132.434 432.717 132.666C432.379 132.895 432.118 133.193 431.936 133.561C431.754 133.929 431.663 134.323 431.663 134.744V135.42C431.663 135.997 431.762 136.486 431.961 136.887C432.163 137.285 432.443 137.588 432.801 137.797C433.159 138.002 433.575 138.105 434.049 138.105C434.357 138.105 434.636 138.062 434.884 137.976C435.136 137.886 435.353 137.754 435.536 137.578C435.718 137.399 435.859 137.177 435.958 136.912L437.092 137.23C436.972 137.615 436.772 137.953 436.49 138.244C436.208 138.533 435.86 138.758 435.446 138.92C435.032 139.08 434.566 139.159 434.049 139.159ZM440.169 128.818V139H438.996V128.818H440.169ZM444.565 139.179C444.081 139.179 443.642 139.088 443.248 138.906C442.853 138.72 442.54 138.453 442.308 138.105C442.076 137.754 441.96 137.33 441.96 136.832C441.96 136.395 442.046 136.04 442.219 135.768C442.391 135.493 442.621 135.278 442.91 135.122C443.198 134.966 443.516 134.85 443.864 134.774C444.215 134.695 444.568 134.632 444.923 134.585C445.387 134.526 445.763 134.481 446.052 134.451C446.343 134.418 446.555 134.363 446.688 134.287C446.824 134.211 446.892 134.078 446.892 133.889V133.849C446.892 133.359 446.758 132.978 446.489 132.706C446.224 132.434 445.821 132.298 445.281 132.298C444.721 132.298 444.282 132.421 443.964 132.666C443.645 132.911 443.422 133.173 443.292 133.452L442.179 133.054C442.378 132.59 442.643 132.229 442.974 131.97C443.309 131.708 443.674 131.526 444.068 131.423C444.466 131.317 444.857 131.264 445.241 131.264C445.487 131.264 445.768 131.294 446.086 131.354C446.408 131.41 446.718 131.528 447.016 131.707C447.318 131.886 447.568 132.156 447.767 132.517C447.966 132.878 448.065 133.362 448.065 133.969V139H446.892V137.966H446.832C446.753 138.132 446.62 138.309 446.434 138.498C446.249 138.687 446.002 138.848 445.694 138.98C445.385 139.113 445.009 139.179 444.565 139.179ZM444.744 138.125C445.208 138.125 445.599 138.034 445.917 137.852C446.239 137.669 446.481 137.434 446.643 137.146C446.809 136.857 446.892 136.554 446.892 136.236V135.162C446.842 135.222 446.733 135.276 446.564 135.326C446.398 135.372 446.206 135.414 445.987 135.45C445.772 135.483 445.561 135.513 445.356 135.54C445.153 135.563 444.989 135.583 444.863 135.599C444.559 135.639 444.273 135.704 444.008 135.793C443.747 135.879 443.534 136.01 443.372 136.186C443.213 136.358 443.133 136.594 443.133 136.892C443.133 137.3 443.284 137.608 443.586 137.817C443.891 138.022 444.277 138.125 444.744 138.125ZM455.616 133.074L454.562 133.372C454.496 133.196 454.398 133.026 454.268 132.86C454.143 132.691 453.97 132.552 453.751 132.442C453.533 132.333 453.253 132.278 452.911 132.278C452.444 132.278 452.054 132.386 451.743 132.602C451.435 132.814 451.281 133.084 451.281 133.412C451.281 133.704 451.387 133.934 451.599 134.103C451.811 134.272 452.142 134.413 452.593 134.526L453.727 134.804C454.409 134.97 454.918 135.223 455.253 135.565C455.588 135.903 455.755 136.339 455.755 136.872C455.755 137.31 455.629 137.701 455.377 138.045C455.129 138.39 454.781 138.662 454.333 138.861C453.886 139.06 453.365 139.159 452.772 139.159C451.993 139.159 451.348 138.99 450.838 138.652C450.328 138.314 450.004 137.82 449.869 137.17L450.982 136.892C451.088 137.303 451.289 137.611 451.584 137.817C451.882 138.022 452.272 138.125 452.752 138.125C453.299 138.125 453.733 138.009 454.055 137.777C454.379 137.542 454.542 137.26 454.542 136.932C454.542 136.667 454.449 136.445 454.263 136.266C454.078 136.083 453.793 135.947 453.408 135.858L452.136 135.56C451.436 135.394 450.923 135.137 450.594 134.789C450.27 134.438 450.107 133.999 450.107 133.472C450.107 133.041 450.228 132.66 450.47 132.328C450.715 131.997 451.049 131.737 451.469 131.548C451.894 131.359 452.374 131.264 452.911 131.264C453.667 131.264 454.26 131.43 454.691 131.761C455.125 132.093 455.433 132.53 455.616 133.074ZM462.035 139H460.743L464.481 128.818H465.754L469.493 139H468.2L465.157 130.429H465.078L462.035 139ZM462.513 135.023H467.723V136.116H462.513V135.023ZM470.92 139V131.364H472.053V132.517H472.133C472.272 132.139 472.524 131.833 472.888 131.597C473.253 131.362 473.664 131.244 474.121 131.244C474.207 131.244 474.315 131.246 474.444 131.249C474.574 131.253 474.671 131.258 474.738 131.264V132.457C474.698 132.447 474.607 132.433 474.464 132.413C474.325 132.389 474.178 132.378 474.022 132.378C473.651 132.378 473.319 132.456 473.028 132.612C472.739 132.764 472.51 132.976 472.341 133.248C472.176 133.516 472.093 133.823 472.093 134.168V139H470.92ZM479.928 131.364V132.358H475.971V131.364H479.928ZM477.124 129.534H478.297V136.812C478.297 137.144 478.345 137.393 478.442 137.558C478.541 137.721 478.667 137.83 478.819 137.886C478.975 137.939 479.139 137.966 479.312 137.966C479.441 137.966 479.547 137.959 479.63 137.946C479.713 137.929 479.779 137.916 479.829 137.906L480.067 138.96C479.988 138.99 479.877 139.02 479.734 139.05C479.592 139.083 479.411 139.099 479.192 139.099C478.861 139.099 478.536 139.028 478.218 138.886C477.903 138.743 477.641 138.526 477.432 138.234C477.227 137.943 477.124 137.575 477.124 137.131V129.534ZM484.813 139.159C484.077 139.159 483.442 138.997 482.909 138.672C482.378 138.344 481.969 137.886 481.681 137.3C481.396 136.71 481.253 136.024 481.253 135.241C481.253 134.459 481.396 133.77 481.681 133.173C481.969 132.573 482.37 132.106 482.884 131.771C483.401 131.433 484.004 131.264 484.693 131.264C485.091 131.264 485.484 131.33 485.872 131.463C486.259 131.596 486.612 131.811 486.931 132.109C487.249 132.404 487.502 132.795 487.691 133.283C487.88 133.77 487.975 134.37 487.975 135.082V135.58H482.088V134.565H486.781C486.781 134.134 486.695 133.75 486.523 133.412C486.354 133.074 486.112 132.807 485.797 132.612C485.485 132.416 485.118 132.318 484.693 132.318C484.226 132.318 483.822 132.434 483.48 132.666C483.142 132.895 482.882 133.193 482.7 133.561C482.517 133.929 482.426 134.323 482.426 134.744V135.42C482.426 135.997 482.526 136.486 482.725 136.887C482.927 137.285 483.207 137.588 483.565 137.797C483.923 138.002 484.339 138.105 484.813 138.105C485.121 138.105 485.399 138.062 485.648 137.976C485.9 137.886 486.117 137.754 486.299 137.578C486.481 137.399 486.622 137.177 486.722 136.912L487.855 137.23C487.736 137.615 487.535 137.953 487.254 138.244C486.972 138.533 486.624 138.758 486.21 138.92C485.795 139.08 485.33 139.159 484.813 139.159ZM495.169 133.074L494.115 133.372C494.048 133.196 493.95 133.026 493.821 132.86C493.695 132.691 493.523 132.552 493.304 132.442C493.085 132.333 492.805 132.278 492.464 132.278C491.997 132.278 491.607 132.386 491.296 132.602C490.987 132.814 490.833 133.084 490.833 133.412C490.833 133.704 490.939 133.934 491.151 134.103C491.364 134.272 491.695 134.413 492.146 134.526L493.279 134.804C493.962 134.97 494.471 135.223 494.806 135.565C495.14 135.903 495.308 136.339 495.308 136.872C495.308 137.31 495.182 137.701 494.93 138.045C494.681 138.39 494.333 138.662 493.886 138.861C493.438 139.06 492.918 139.159 492.325 139.159C491.546 139.159 490.901 138.99 490.391 138.652C489.88 138.314 489.557 137.82 489.421 137.17L490.535 136.892C490.641 137.303 490.842 137.611 491.137 137.817C491.435 138.022 491.824 138.125 492.305 138.125C492.852 138.125 493.286 138.009 493.607 137.777C493.932 137.542 494.095 137.26 494.095 136.932C494.095 136.667 494.002 136.445 493.816 136.266C493.631 136.083 493.346 135.947 492.961 135.858L491.688 135.56C490.989 135.394 490.475 135.137 490.147 134.789C489.822 134.438 489.66 133.999 489.66 133.472C489.66 133.041 489.781 132.66 490.023 132.328C490.268 131.997 490.601 131.737 491.022 131.548C491.446 131.359 491.927 131.264 492.464 131.264C493.22 131.264 493.813 131.43 494.244 131.761C494.678 132.093 494.986 132.53 495.169 133.074Z" fill="#FAFAFA"/>
<circle cx="456" cy="78.0005" r="6.99574" transform="rotate(-89.9626 456 78.0005)" fill="url(#paint4_linear_39_2)"/>
<path d="M589.576 114H584.396V98H589.74C591.308 98 592.654 98.3203 593.779 98.9609C594.904 99.5964 595.766 100.51 596.365 101.703C596.969 102.891 597.271 104.315 597.271 105.977C597.271 107.643 596.967 109.076 596.357 110.273C595.753 111.471 594.878 112.393 593.732 113.039C592.587 113.68 591.201 114 589.576 114ZM586.811 111.891H589.443C590.662 111.891 591.675 111.661 592.482 111.203C593.29 110.74 593.894 110.07 594.295 109.195C594.696 108.315 594.896 107.242 594.896 105.977C594.896 104.721 594.696 103.656 594.295 102.781C593.899 101.906 593.308 101.242 592.521 100.789C591.735 100.336 590.758 100.109 589.592 100.109H586.811V111.891ZM605.141 114.242C604.016 114.242 603.034 113.984 602.195 113.469C601.357 112.953 600.706 112.232 600.242 111.305C599.779 110.378 599.547 109.294 599.547 108.055C599.547 106.81 599.779 105.721 600.242 104.789C600.706 103.857 601.357 103.133 602.195 102.617C603.034 102.102 604.016 101.844 605.141 101.844C606.266 101.844 607.247 102.102 608.086 102.617C608.924 103.133 609.576 103.857 610.039 104.789C610.503 105.721 610.734 106.81 610.734 108.055C610.734 109.294 610.503 110.378 610.039 111.305C609.576 112.232 608.924 112.953 608.086 113.469C607.247 113.984 606.266 114.242 605.141 114.242ZM605.148 112.281C605.878 112.281 606.482 112.089 606.961 111.703C607.44 111.318 607.794 110.805 608.023 110.164C608.258 109.523 608.375 108.818 608.375 108.047C608.375 107.281 608.258 106.578 608.023 105.937C607.794 105.292 607.44 104.773 606.961 104.383C606.482 103.992 605.878 103.797 605.148 103.797C604.414 103.797 603.805 103.992 603.32 104.383C602.841 104.773 602.484 105.292 602.25 105.937C602.021 106.578 601.906 107.281 601.906 108.047C601.906 108.818 602.021 109.523 602.25 110.164C602.484 110.805 602.841 111.318 603.32 111.703C603.805 112.089 604.414 112.281 605.148 112.281ZM618.396 114.242C617.235 114.242 616.235 113.979 615.396 113.453C614.563 112.922 613.923 112.19 613.475 111.258C613.027 110.326 612.803 109.258 612.803 108.055C612.803 106.836 613.032 105.76 613.49 104.828C613.949 103.891 614.594 103.159 615.428 102.633C616.261 102.107 617.243 101.844 618.373 101.844C619.285 101.844 620.097 102.013 620.811 102.352C621.524 102.685 622.1 103.154 622.537 103.758C622.98 104.362 623.243 105.068 623.326 105.875H621.053C620.928 105.312 620.641 104.828 620.193 104.422C619.751 104.016 619.157 103.812 618.412 103.812C617.761 103.812 617.191 103.984 616.701 104.328C616.217 104.667 615.839 105.151 615.568 105.781C615.298 106.406 615.162 107.146 615.162 108C615.162 108.875 615.295 109.63 615.561 110.266C615.826 110.901 616.201 111.393 616.686 111.742C617.175 112.091 617.751 112.266 618.412 112.266C618.855 112.266 619.256 112.185 619.615 112.023C619.98 111.857 620.285 111.62 620.529 111.312C620.779 111.005 620.954 110.635 621.053 110.203H623.326C623.243 110.979 622.99 111.672 622.568 112.281C622.146 112.891 621.581 113.37 620.873 113.719C620.17 114.068 619.344 114.242 618.396 114.242ZM627.973 109.93L627.957 107.078H628.363L633.145 102H635.941L630.488 107.781H630.121L627.973 109.93ZM625.824 114V98H628.16V114H625.824ZM633.402 114L629.105 108.297L630.715 106.664L636.27 114H633.402ZM642.748 114.242C641.566 114.242 640.548 113.99 639.693 113.484C638.844 112.974 638.188 112.258 637.725 111.336C637.266 110.409 637.037 109.323 637.037 108.078C637.037 106.849 637.266 105.766 637.725 104.828C638.188 103.891 638.834 103.159 639.662 102.633C640.495 102.107 641.469 101.844 642.584 101.844C643.261 101.844 643.917 101.956 644.553 102.18C645.188 102.404 645.758 102.755 646.264 103.234C646.769 103.714 647.167 104.336 647.459 105.102C647.751 105.862 647.896 106.786 647.896 107.875V108.703H638.357V106.953H645.607C645.607 106.339 645.482 105.794 645.232 105.32C644.982 104.841 644.631 104.464 644.178 104.187C643.73 103.911 643.204 103.773 642.6 103.773C641.943 103.773 641.37 103.935 640.881 104.258C640.396 104.576 640.021 104.992 639.756 105.508C639.495 106.018 639.365 106.573 639.365 107.172V108.539C639.365 109.341 639.506 110.023 639.787 110.586C640.074 111.148 640.472 111.578 640.982 111.875C641.493 112.167 642.089 112.312 642.771 112.312C643.214 112.312 643.618 112.25 643.982 112.125C644.347 111.995 644.662 111.802 644.928 111.547C645.193 111.292 645.396 110.977 645.537 110.602L647.748 111C647.571 111.651 647.253 112.221 646.795 112.711C646.342 113.195 645.771 113.573 645.084 113.844C644.402 114.109 643.623 114.242 642.748 114.242ZM650.488 114V102H652.746V103.906H652.871C653.09 103.26 653.475 102.753 654.027 102.383C654.585 102.008 655.215 101.82 655.918 101.82C656.064 101.82 656.236 101.826 656.434 101.836C656.637 101.846 656.796 101.859 656.91 101.875V104.109C656.816 104.083 656.65 104.055 656.41 104.023C656.171 103.987 655.931 103.969 655.691 103.969C655.139 103.969 654.647 104.086 654.215 104.32C653.788 104.549 653.449 104.87 653.199 105.281C652.949 105.687 652.824 106.151 652.824 106.672V114H650.488Z" fill="#FAFAFA"/>
<path d="M604.007 128.818H605.24V135.56C605.24 136.256 605.075 136.877 604.747 137.424C604.423 137.968 603.963 138.397 603.37 138.712C602.777 139.023 602.081 139.179 601.282 139.179C600.483 139.179 599.787 139.023 599.194 138.712C598.601 138.397 598.14 137.968 597.812 137.424C597.487 136.877 597.325 136.256 597.325 135.56V128.818H598.558V135.46C598.558 135.957 598.667 136.4 598.886 136.788C599.105 137.172 599.416 137.475 599.82 137.697C600.228 137.916 600.715 138.026 601.282 138.026C601.849 138.026 602.336 137.916 602.744 137.697C603.151 137.475 603.463 137.172 603.678 136.788C603.897 136.4 604.007 135.957 604.007 135.46V128.818ZM610.426 139.159C609.79 139.159 609.228 138.998 608.741 138.677C608.254 138.352 607.872 137.895 607.597 137.305C607.322 136.711 607.185 136.01 607.185 135.202C607.185 134.4 607.322 133.704 607.597 133.114C607.872 132.524 608.255 132.068 608.746 131.746C609.236 131.425 609.803 131.264 610.446 131.264C610.943 131.264 611.336 131.347 611.624 131.513C611.916 131.675 612.138 131.861 612.29 132.07C612.446 132.275 612.567 132.444 612.653 132.577H612.753V128.818H613.926V139H612.793V137.827H612.653C612.567 137.966 612.445 138.142 612.286 138.354C612.126 138.562 611.899 138.75 611.604 138.915C611.309 139.078 610.917 139.159 610.426 139.159ZM610.585 138.105C611.056 138.105 611.454 137.982 611.778 137.737C612.103 137.489 612.35 137.146 612.519 136.708C612.688 136.267 612.773 135.759 612.773 135.182C612.773 134.612 612.69 134.113 612.524 133.685C612.358 133.254 612.113 132.92 611.788 132.681C611.464 132.439 611.063 132.318 610.585 132.318C610.088 132.318 609.674 132.446 609.342 132.701C609.014 132.953 608.767 133.296 608.602 133.73C608.439 134.161 608.358 134.645 608.358 135.182C608.358 135.725 608.441 136.219 608.607 136.663C608.776 137.104 609.024 137.455 609.352 137.717C609.684 137.976 610.095 138.105 610.585 138.105ZM619.44 139.159C618.704 139.159 618.069 138.997 617.536 138.672C617.005 138.344 616.596 137.886 616.308 137.3C616.022 136.71 615.88 136.024 615.88 135.241C615.88 134.459 616.022 133.77 616.308 133.173C616.596 132.573 616.997 132.106 617.511 131.771C618.028 131.433 618.631 131.264 619.32 131.264C619.718 131.264 620.111 131.33 620.499 131.463C620.886 131.596 621.239 131.811 621.558 132.109C621.876 132.404 622.129 132.795 622.318 133.283C622.507 133.77 622.602 134.37 622.602 135.082V135.58H616.715V134.565H621.408C621.408 134.134 621.322 133.75 621.15 133.412C620.981 133.074 620.739 132.807 620.424 132.612C620.112 132.416 619.745 132.318 619.32 132.318C618.853 132.318 618.449 132.434 618.107 132.666C617.769 132.895 617.509 133.193 617.327 133.561C617.144 133.929 617.053 134.323 617.053 134.744V135.42C617.053 135.997 617.153 136.486 617.352 136.887C617.554 137.285 617.834 137.588 618.192 137.797C618.55 138.002 618.966 138.105 619.44 138.105C619.748 138.105 620.026 138.062 620.275 137.976C620.527 137.886 620.744 137.754 620.926 137.578C621.108 137.399 621.249 137.177 621.349 136.912L622.482 137.23C622.363 137.615 622.162 137.953 621.881 138.244C621.599 138.533 621.251 138.758 620.837 138.92C620.422 139.08 619.957 139.159 619.44 139.159ZM624.386 139V131.364H625.52V132.557H625.619C625.778 132.149 626.035 131.833 626.39 131.607C626.745 131.379 627.17 131.264 627.668 131.264C628.171 131.264 628.591 131.379 628.925 131.607C629.263 131.833 629.527 132.149 629.716 132.557H629.795C629.991 132.162 630.284 131.849 630.675 131.617C631.067 131.382 631.536 131.264 632.082 131.264C632.765 131.264 633.324 131.478 633.758 131.906C634.192 132.33 634.409 132.991 634.409 133.889V139H633.236V133.889C633.236 133.326 633.082 132.923 632.773 132.681C632.465 132.439 632.102 132.318 631.685 132.318C631.148 132.318 630.732 132.481 630.437 132.805C630.142 133.127 629.994 133.535 629.994 134.028V139H628.801V133.77C628.801 133.336 628.66 132.986 628.379 132.721C628.097 132.452 627.734 132.318 627.29 132.318C626.985 132.318 626.7 132.399 626.435 132.562C626.173 132.724 625.961 132.95 625.798 133.238C625.639 133.523 625.56 133.853 625.56 134.227V139H624.386ZM637.037 141.864C636.838 141.864 636.66 141.847 636.505 141.814C636.349 141.784 636.241 141.754 636.181 141.724L636.48 140.69C636.765 140.763 637.017 140.79 637.235 140.77C637.454 140.75 637.648 140.652 637.817 140.477C637.989 140.304 638.147 140.024 638.289 139.636L638.508 139.04L635.684 131.364H636.957L639.065 137.449H639.145L641.252 131.364H642.525L639.284 140.114C639.138 140.508 638.957 140.835 638.742 141.093C638.526 141.355 638.276 141.549 637.991 141.675C637.709 141.801 637.391 141.864 637.037 141.864Z" fill="#FAFAFA"/>
<circle cx="619" cy="78.0005" r="6.99574" transform="rotate(-89.9626 619 78.0005)" fill="url(#paint5_linear_39_2)"/>
<path d="M724.251 98V114H721.837V98H724.251ZM729.915 106.875V114H727.579V102H729.821V103.953H729.97C730.246 103.318 730.678 102.807 731.267 102.422C731.86 102.036 732.608 101.844 733.509 101.844C734.326 101.844 735.043 102.016 735.657 102.359C736.272 102.698 736.748 103.203 737.087 103.875C737.425 104.547 737.595 105.378 737.595 106.367V114H735.259V106.648C735.259 105.779 735.032 105.099 734.579 104.609C734.126 104.115 733.504 103.867 732.712 103.867C732.17 103.867 731.688 103.984 731.267 104.219C730.85 104.453 730.519 104.797 730.274 105.25C730.035 105.698 729.915 106.24 729.915 106.875ZM745.759 118.75C744.806 118.75 743.985 118.625 743.298 118.375C742.616 118.125 742.058 117.794 741.626 117.383C741.194 116.971 740.871 116.521 740.657 116.031L742.665 115.203C742.806 115.432 742.993 115.674 743.228 115.93C743.467 116.19 743.79 116.411 744.196 116.594C744.608 116.776 745.136 116.867 745.782 116.867C746.668 116.867 747.399 116.651 747.978 116.219C748.556 115.792 748.845 115.109 748.845 114.172V111.812H748.696C748.556 112.068 748.353 112.352 748.087 112.664C747.826 112.977 747.467 113.247 747.009 113.477C746.55 113.706 745.954 113.82 745.22 113.82C744.272 113.82 743.418 113.599 742.657 113.156C741.902 112.708 741.303 112.049 740.86 111.18C740.423 110.305 740.204 109.229 740.204 107.953C740.204 106.677 740.42 105.583 740.853 104.672C741.29 103.76 741.889 103.062 742.649 102.578C743.41 102.089 744.272 101.844 745.235 101.844C745.98 101.844 746.582 101.969 747.04 102.219C747.498 102.464 747.855 102.75 748.11 103.078C748.371 103.406 748.571 103.695 748.712 103.945H748.884V102H751.173V114.266C751.173 115.297 750.933 116.143 750.454 116.805C749.975 117.466 749.326 117.956 748.509 118.273C747.696 118.591 746.78 118.75 745.759 118.75ZM745.735 111.883C746.407 111.883 746.975 111.727 747.438 111.414C747.907 111.096 748.261 110.643 748.501 110.055C748.746 109.461 748.868 108.75 748.868 107.922C748.868 107.115 748.748 106.404 748.509 105.789C748.269 105.174 747.918 104.695 747.454 104.352C746.991 104.003 746.418 103.828 745.735 103.828C745.032 103.828 744.446 104.01 743.978 104.375C743.509 104.734 743.155 105.224 742.915 105.844C742.681 106.464 742.563 107.156 742.563 107.922C742.563 108.708 742.683 109.398 742.923 109.992C743.162 110.586 743.517 111.049 743.985 111.383C744.459 111.716 745.043 111.883 745.735 111.883ZM756.642 98V114H754.306V98H756.642ZM764.956 114.242C763.774 114.242 762.756 113.99 761.901 113.484C761.052 112.974 760.396 112.258 759.933 111.336C759.474 110.409 759.245 109.323 759.245 108.078C759.245 106.849 759.474 105.766 759.933 104.828C760.396 103.891 761.042 103.159 761.87 102.633C762.703 102.107 763.677 101.844 764.792 101.844C765.469 101.844 766.125 101.956 766.761 102.18C767.396 102.404 767.966 102.755 768.472 103.234C768.977 103.714 769.375 104.336 769.667 105.102C769.959 105.862 770.104 106.786 770.104 107.875V108.703H760.565V106.953H767.815C767.815 106.339 767.69 105.794 767.44 105.32C767.19 104.841 766.839 104.464 766.386 104.187C765.938 103.911 765.412 103.773 764.808 103.773C764.151 103.773 763.578 103.935 763.089 104.258C762.604 104.576 762.229 104.992 761.964 105.508C761.703 106.018 761.573 106.573 761.573 107.172V108.539C761.573 109.341 761.714 110.023 761.995 110.586C762.282 111.148 762.68 111.578 763.19 111.875C763.701 112.167 764.297 112.312 764.979 112.312C765.422 112.312 765.826 112.25 766.19 112.125C766.555 111.995 766.87 111.802 767.136 111.547C767.401 111.292 767.604 110.977 767.745 110.602L769.956 111C769.779 111.651 769.461 112.221 769.003 112.711C768.55 113.195 767.979 113.573 767.292 113.844C766.61 114.109 765.831 114.242 764.956 114.242ZM766.308 100.562L764.706 98.4687L763.097 100.562H760.987V100.445L763.729 97.1328H765.675L768.425 100.445V100.562H766.308ZM781.688 104.93L779.571 105.305C779.483 105.034 779.342 104.776 779.149 104.531C778.962 104.286 778.707 104.086 778.384 103.93C778.061 103.773 777.657 103.695 777.173 103.695C776.511 103.695 775.959 103.844 775.517 104.141C775.074 104.432 774.853 104.81 774.853 105.273C774.853 105.674 775.001 105.997 775.298 106.242C775.595 106.487 776.074 106.687 776.735 106.844L778.642 107.281C779.746 107.536 780.569 107.93 781.11 108.461C781.652 108.992 781.923 109.682 781.923 110.531C781.923 111.25 781.715 111.891 781.298 112.453C780.886 113.01 780.311 113.448 779.571 113.766C778.837 114.083 777.985 114.242 777.017 114.242C775.673 114.242 774.576 113.956 773.728 113.383C772.879 112.805 772.358 111.984 772.165 110.922L774.423 110.578C774.563 111.167 774.853 111.612 775.29 111.914C775.728 112.211 776.298 112.359 777.001 112.359C777.767 112.359 778.379 112.201 778.837 111.883C779.295 111.56 779.524 111.167 779.524 110.703C779.524 110.328 779.384 110.013 779.103 109.758C778.826 109.503 778.402 109.31 777.829 109.18L775.798 108.734C774.678 108.479 773.85 108.073 773.313 107.516C772.782 106.958 772.517 106.253 772.517 105.398C772.517 104.69 772.715 104.07 773.11 103.539C773.506 103.008 774.053 102.594 774.751 102.297C775.449 101.995 776.248 101.844 777.149 101.844C778.446 101.844 779.467 102.125 780.212 102.687C780.957 103.245 781.449 103.992 781.688 104.93Z" fill="#FAFAFA"/>
<path d="M706.685 128.818H708.157L711.617 137.27H711.736L715.196 128.818H716.668V139H715.515V131.264H715.415L712.233 139H711.12L707.938 131.264H707.839V139H706.685V128.818ZM721.228 139.179C720.744 139.179 720.305 139.088 719.911 138.906C719.516 138.72 719.203 138.453 718.971 138.105C718.739 137.754 718.623 137.33 718.623 136.832C718.623 136.395 718.709 136.04 718.882 135.768C719.054 135.493 719.284 135.278 719.573 135.122C719.861 134.966 720.179 134.85 720.527 134.774C720.879 134.695 721.232 134.632 721.586 134.585C722.05 134.526 722.426 134.481 722.715 134.451C723.006 134.418 723.219 134.363 723.351 134.287C723.487 134.211 723.555 134.078 723.555 133.889V133.849C723.555 133.359 723.421 132.978 723.152 132.706C722.887 132.434 722.484 132.298 721.944 132.298C721.384 132.298 720.945 132.421 720.627 132.666C720.309 132.911 720.085 133.173 719.956 133.452L718.842 133.054C719.041 132.59 719.306 132.229 719.637 131.97C719.972 131.708 720.337 131.526 720.731 131.423C721.129 131.317 721.52 131.264 721.904 131.264C722.15 131.264 722.431 131.294 722.75 131.354C723.071 131.41 723.381 131.528 723.679 131.707C723.981 131.886 724.231 132.156 724.43 132.517C724.629 132.878 724.728 133.362 724.728 133.969V139H723.555V137.966H723.495C723.416 138.132 723.283 138.309 723.098 138.498C722.912 138.687 722.665 138.848 722.357 138.98C722.049 139.113 721.672 139.179 721.228 139.179ZM721.407 138.125C721.871 138.125 722.262 138.034 722.581 137.852C722.902 137.669 723.144 137.434 723.306 137.146C723.472 136.857 723.555 136.554 723.555 136.236V135.162C723.505 135.222 723.396 135.276 723.227 135.326C723.061 135.372 722.869 135.414 722.65 135.45C722.435 135.483 722.224 135.513 722.019 135.54C721.817 135.563 721.652 135.583 721.527 135.599C721.222 135.639 720.937 135.704 720.671 135.793C720.41 135.879 720.197 136.01 720.035 136.186C719.876 136.358 719.796 136.594 719.796 136.892C719.796 137.3 719.947 137.608 720.249 137.817C720.554 138.022 720.94 138.125 721.407 138.125ZM726.87 139V131.364H728.043V139H726.87ZM727.466 130.091C727.238 130.091 727.04 130.013 726.875 129.857C726.712 129.701 726.631 129.514 726.631 129.295C726.631 129.077 726.712 128.889 726.875 128.734C727.04 128.578 727.238 128.5 727.466 128.5C727.695 128.5 727.891 128.578 728.053 128.734C728.219 128.889 728.302 129.077 728.302 129.295C728.302 129.514 728.219 129.701 728.053 129.857C727.891 130.013 727.695 130.091 727.466 130.091ZM730.192 139V131.364H731.326V132.517H731.405C731.544 132.139 731.796 131.833 732.161 131.597C732.525 131.362 732.936 131.244 733.394 131.244C733.48 131.244 733.588 131.246 733.717 131.249C733.846 131.253 733.944 131.258 734.01 131.264V132.457C733.97 132.447 733.879 132.433 733.737 132.413C733.598 132.389 733.45 132.378 733.294 132.378C732.923 132.378 732.592 132.456 732.3 132.612C732.012 132.764 731.783 132.976 731.614 133.248C731.448 133.516 731.365 133.823 731.365 134.168V139H730.192ZM738.271 139.159C737.581 139.159 736.977 138.995 736.456 138.667C735.939 138.339 735.535 137.88 735.243 137.29C734.955 136.7 734.811 136.01 734.811 135.222C734.811 134.426 734.955 133.732 735.243 133.138C735.535 132.545 735.939 132.085 736.456 131.756C736.977 131.428 737.581 131.264 738.271 131.264C738.96 131.264 739.563 131.428 740.081 131.756C740.601 132.085 741.005 132.545 741.294 133.138C741.585 133.732 741.731 134.426 741.731 135.222C741.731 136.01 741.585 136.7 741.294 137.29C741.005 137.88 740.601 138.339 740.081 138.667C739.563 138.995 738.96 139.159 738.271 139.159ZM738.271 138.105C738.795 138.105 739.225 137.971 739.563 137.702C739.902 137.434 740.152 137.081 740.314 136.643C740.477 136.206 740.558 135.732 740.558 135.222C740.558 134.711 740.477 134.236 740.314 133.795C740.152 133.354 739.902 132.998 739.563 132.726C739.225 132.454 738.795 132.318 738.271 132.318C737.747 132.318 737.316 132.454 736.978 132.726C736.64 132.998 736.39 133.354 736.228 133.795C736.065 134.236 735.984 134.711 735.984 135.222C735.984 135.732 736.065 136.206 736.228 136.643C736.39 137.081 736.64 137.434 736.978 137.702C737.316 137.971 737.747 138.105 738.271 138.105ZM753.704 131.364L750.88 139H749.687L746.863 131.364H748.136L750.244 137.449H750.323L752.431 131.364H753.704ZM758.181 139.159C757.445 139.159 756.81 138.997 756.277 138.672C755.746 138.344 755.337 137.886 755.049 137.3C754.764 136.71 754.621 136.024 754.621 135.241C754.621 134.459 754.764 133.77 755.049 133.173C755.337 132.573 755.738 132.106 756.252 131.771C756.769 131.433 757.372 131.264 758.062 131.264C758.459 131.264 758.852 131.33 759.24 131.463C759.628 131.596 759.981 131.811 760.299 132.109C760.617 132.404 760.87 132.795 761.059 133.283C761.248 133.77 761.343 134.37 761.343 135.082V135.58H755.456V134.565H760.15C760.15 134.134 760.063 133.75 759.891 133.412C759.722 133.074 759.48 132.807 759.165 132.612C758.854 132.416 758.486 132.318 758.062 132.318C757.594 132.318 757.19 132.434 756.848 132.666C756.51 132.895 756.25 133.193 756.068 133.561C755.886 133.929 755.794 134.323 755.794 134.744V135.42C755.794 135.997 755.894 136.486 756.093 136.887C756.295 137.285 756.575 137.588 756.933 137.797C757.291 138.002 757.707 138.105 758.181 138.105C758.489 138.105 758.767 138.062 759.016 137.976C759.268 137.886 759.485 137.754 759.667 137.578C759.85 137.399 759.991 137.177 760.09 136.912L761.223 137.23C761.104 137.615 760.904 137.953 760.622 138.244C760.34 138.533 759.992 138.758 759.578 138.92C759.164 139.08 758.698 139.159 758.181 139.159ZM763.128 139V131.364H764.261V132.517H764.341C764.48 132.139 764.732 131.833 765.096 131.597C765.461 131.362 765.872 131.244 766.329 131.244C766.415 131.244 766.523 131.246 766.652 131.249C766.782 131.253 766.879 131.258 766.946 131.264V132.457C766.906 132.447 766.815 132.433 766.672 132.413C766.533 132.389 766.386 132.378 766.23 132.378C765.859 132.378 765.527 132.456 765.236 132.612C764.947 132.764 764.718 132.976 764.549 133.248C764.384 133.516 764.301 133.823 764.301 134.168V139H763.128ZM771.187 142.023C770.62 142.023 770.133 141.95 769.725 141.804C769.317 141.661 768.977 141.473 768.706 141.237C768.437 141.005 768.223 140.757 768.064 140.491L768.999 139.835C769.105 139.974 769.239 140.134 769.402 140.312C769.564 140.495 769.786 140.652 770.068 140.785C770.353 140.921 770.726 140.989 771.187 140.989C771.803 140.989 772.312 140.839 772.713 140.541C773.114 140.243 773.314 139.776 773.314 139.139V137.588H773.215C773.129 137.727 773.006 137.9 772.847 138.105C772.691 138.307 772.466 138.488 772.171 138.647C771.879 138.803 771.485 138.881 770.988 138.881C770.371 138.881 769.818 138.735 769.327 138.443C768.84 138.152 768.454 137.727 768.169 137.17C767.887 136.614 767.746 135.937 767.746 135.142C767.746 134.36 767.884 133.679 768.159 133.099C768.434 132.515 768.817 132.065 769.307 131.746C769.798 131.425 770.365 131.264 771.008 131.264C771.505 131.264 771.899 131.347 772.191 131.513C772.486 131.675 772.711 131.861 772.867 132.07C773.026 132.275 773.149 132.444 773.235 132.577H773.354V131.364H774.488V139.219C774.488 139.875 774.339 140.409 774.04 140.82C773.745 141.234 773.348 141.537 772.847 141.729C772.35 141.925 771.796 142.023 771.187 142.023ZM771.147 137.827C771.617 137.827 772.015 137.719 772.34 137.504C772.665 137.288 772.912 136.978 773.081 136.574C773.25 136.17 773.334 135.686 773.334 135.122C773.334 134.572 773.251 134.086 773.086 133.665C772.92 133.245 772.675 132.915 772.35 132.676C772.025 132.437 771.624 132.318 771.147 132.318C770.65 132.318 770.235 132.444 769.904 132.696C769.576 132.948 769.329 133.286 769.163 133.71C769.001 134.134 768.919 134.605 768.919 135.122C768.919 135.652 769.002 136.121 769.168 136.529C769.337 136.933 769.586 137.252 769.914 137.484C770.245 137.712 770.656 137.827 771.147 137.827ZM778.883 139.179C778.399 139.179 777.959 139.088 777.565 138.906C777.171 138.72 776.857 138.453 776.625 138.105C776.393 137.754 776.277 137.33 776.277 136.832C776.277 136.395 776.364 136.04 776.536 135.768C776.708 135.493 776.939 135.278 777.227 135.122C777.515 134.966 777.834 134.85 778.182 134.774C778.533 134.695 778.886 134.632 779.241 134.585C779.705 134.526 780.081 134.481 780.369 134.451C780.661 134.418 780.873 134.363 781.005 134.287C781.141 134.211 781.209 134.078 781.209 133.889V133.849C781.209 133.359 781.075 132.978 780.807 132.706C780.541 132.434 780.139 132.298 779.598 132.298C779.038 132.298 778.599 132.421 778.281 132.666C777.963 132.911 777.739 133.173 777.61 133.452L776.496 133.054C776.695 132.59 776.96 132.229 777.292 131.97C777.626 131.708 777.991 131.526 778.385 131.423C778.783 131.317 779.174 131.264 779.559 131.264C779.804 131.264 780.086 131.294 780.404 131.354C780.725 131.41 781.035 131.528 781.334 131.707C781.635 131.886 781.885 132.156 782.084 132.517C782.283 132.878 782.383 133.362 782.383 133.969V139H781.209V137.966H781.15C781.07 138.132 780.937 138.309 780.752 138.498C780.566 138.687 780.319 138.848 780.011 138.98C779.703 139.113 779.327 139.179 778.883 139.179ZM779.062 138.125C779.526 138.125 779.917 138.034 780.235 137.852C780.556 137.669 780.798 137.434 780.961 137.146C781.126 136.857 781.209 136.554 781.209 136.236V135.162C781.16 135.222 781.05 135.276 780.881 135.326C780.715 135.372 780.523 135.414 780.304 135.45C780.089 135.483 779.879 135.513 779.673 135.54C779.471 135.563 779.307 135.583 779.181 135.599C778.876 135.639 778.591 135.704 778.326 135.793C778.064 135.879 777.852 136.01 777.689 136.186C777.53 136.358 777.451 136.594 777.451 136.892C777.451 137.3 777.602 137.608 777.903 137.817C778.208 138.022 778.594 138.125 779.062 138.125ZM784.524 139V131.364H785.658V132.517H785.737C785.876 132.139 786.128 131.833 786.493 131.597C786.857 131.362 787.268 131.244 787.726 131.244C787.812 131.244 787.92 131.246 788.049 131.249C788.178 131.253 788.276 131.258 788.342 131.264V132.457C788.302 132.447 788.211 132.433 788.069 132.413C787.93 132.389 787.782 132.378 787.626 132.378C787.255 132.378 786.924 132.456 786.632 132.612C786.344 132.764 786.115 132.976 785.946 133.248C785.78 133.516 785.697 133.823 785.697 134.168V139H784.524ZM791.98 139.179C791.496 139.179 791.057 139.088 790.663 138.906C790.268 138.72 789.955 138.453 789.723 138.105C789.491 137.754 789.375 137.33 789.375 136.832C789.375 136.395 789.461 136.04 789.634 135.768C789.806 135.493 790.036 135.278 790.325 135.122C790.613 134.966 790.931 134.85 791.279 134.774C791.631 134.695 791.984 134.632 792.338 134.585C792.802 134.526 793.178 134.481 793.467 134.451C793.758 134.418 793.97 134.363 794.103 134.287C794.239 134.211 794.307 134.078 794.307 133.889V133.849C794.307 133.359 794.173 132.978 793.904 132.706C793.639 132.434 793.236 132.298 792.696 132.298C792.136 132.298 791.697 132.421 791.379 132.666C791.06 132.911 790.837 133.173 790.707 133.452L789.594 133.054C789.793 132.59 790.058 132.229 790.389 131.97C790.724 131.708 791.089 131.526 791.483 131.423C791.881 131.317 792.272 131.264 792.656 131.264C792.902 131.264 793.183 131.294 793.502 131.354C793.823 131.41 794.133 131.528 794.431 131.707C794.733 131.886 794.983 132.156 795.182 132.517C795.381 132.878 795.48 133.362 795.48 133.969V139H794.307V137.966H794.247C794.168 138.132 794.035 138.309 793.85 138.498C793.664 138.687 793.417 138.848 793.109 138.98C792.801 139.113 792.424 139.179 791.98 139.179ZM792.159 138.125C792.623 138.125 793.014 138.034 793.332 137.852C793.654 137.669 793.896 137.434 794.058 137.146C794.224 136.857 794.307 136.554 794.307 136.236V135.162C794.257 135.222 794.148 135.276 793.979 135.326C793.813 135.372 793.621 135.414 793.402 135.45C793.187 135.483 792.976 135.513 792.771 135.54C792.569 135.563 792.404 135.583 792.278 135.599C791.974 135.639 791.689 135.704 791.423 135.793C791.162 135.879 790.949 136.01 790.787 136.186C790.628 136.358 790.548 136.594 790.548 136.892C790.548 137.3 790.699 137.608 791.001 137.817C791.306 138.022 791.692 138.125 792.159 138.125Z" fill="#FAFAFA"/>
<circle cx="751" cy="78.0005" r="6.99574" transform="rotate(-89.9626 751 78.0005)" fill="url(#paint6_linear_39_2)"/>
<defs>
<linearGradient id="paint0_linear_39_2" x1="892" y1="78" x2="880" y2="78" gradientUnits="userSpaceOnUse">
<stop offset="0.280556" stop-color="#55ABC8"/>
<stop offset="1" stop-color="#5E0CE4"/>
</linearGradient>
<linearGradient id="paint1_linear_39_2" x1="0.957009" y1="77.9893" x2="880.129" y2="77.9898" gradientUnits="userSpaceOnUse">
<stop stop-color="#A3D8E9"/>
<stop offset="0.333333" stop-color="#55ABC8"/>
<stop offset="0.973264" stop-color="#186E8A"/>
<stop offset="1" stop-color="#06475C"/>
</linearGradient>
<linearGradient id="paint2_linear_39_2" x1="93.0003" y1="71.0048" x2="93.0003" y2="84.9963" gradientUnits="userSpaceOnUse">
<stop offset="0.165972" stop-color="#EE7B6B"/>
<stop offset="1" stop-color="#F20A0A"/>
</linearGradient>
<linearGradient id="paint3_linear_39_2" x1="266" y1="71.0048" x2="266" y2="84.9963" gradientUnits="userSpaceOnUse">
<stop offset="0.165972" stop-color="#EE7B6B"/>
<stop offset="1" stop-color="#F20A0A"/>
</linearGradient>
<linearGradient id="paint4_linear_39_2" x1="456" y1="71.0048" x2="456" y2="84.9963" gradientUnits="userSpaceOnUse">
<stop offset="0.165972" stop-color="#EE7B6B"/>
<stop offset="1" stop-color="#F20A0A"/>
</linearGradient>
<linearGradient id="paint5_linear_39_2" x1="619" y1="71.0048" x2="619" y2="84.9963" gradientUnits="userSpaceOnUse">
<stop offset="0.165972" stop-color="#EE7B6B"/>
<stop offset="1" stop-color="#F20A0A"/>
</linearGradient>
<linearGradient id="paint6_linear_39_2" x1="751" y1="71.0048" x2="751" y2="84.9963" gradientUnits="userSpaceOnUse">
<stop offset="0.165972" stop-color="#EE7B6B"/>
<stop offset="1" stop-color="#F20A0A"/>
</linearGradient>
</defs>
</svg>
