<svg width="34" height="34" viewBox="0 0 34 34" fill="none" xmlns="http://www.w3.org/2000/svg">
<g clip-path="url(#clip0_47_1008)">
<path d="M29.7502 17.0002H18.4168C18.4168 16.72 18.3337 16.4461 18.1781 16.2131C18.0224 15.9801 17.8012 15.7986 17.5423 15.6913C17.2834 15.5841 16.9986 15.5561 16.7238 15.6107C16.449 15.6654 16.1966 15.8003 15.9984 15.9984C15.8003 16.1966 15.6654 16.449 15.6107 16.7238C15.5561 16.9986 15.5841 17.2834 15.6913 17.5423C15.7986 17.8012 15.9801 18.0224 16.2131 18.1781C16.4461 18.3337 16.72 18.4168 17.0002 18.4168V29.7502C20.3817 29.7502 23.6247 28.4069 26.0158 26.0158C28.4069 23.6247 29.7502 20.3817 29.7502 17.0002Z" stroke="url(#paint0_linear_47_1008)" stroke-width="2" stroke-linecap="round" stroke-linejoin="round"/>
<path d="M22.6665 12.7498C22.0576 11.938 21.2813 11.2664 20.3903 10.7806C19.4993 10.2949 18.5143 10.0063 17.502 9.93432C16.4897 9.86238 15.4737 10.0088 14.523 10.3637C13.5722 10.7185 12.7088 11.2736 11.9912 11.9912C11.2736 12.7088 10.7185 13.5722 10.3637 14.523C10.0088 15.4737 9.86238 16.4897 9.93432 17.502C10.0063 18.5143 10.2949 19.4993 10.7806 20.3903C11.2664 21.2813 11.938 22.0576 12.7498 22.6665" stroke="url(#paint1_linear_47_1008)" stroke-width="2" stroke-linecap="round" stroke-linejoin="round"/>
<path d="M29.0218 12.7498C28.3017 10.7206 27.0795 8.90684 25.4691 7.47761C23.8587 6.04838 21.9125 5.05027 19.8122 4.57635C17.7118 4.10243 15.5257 4.16814 13.4576 4.76736C11.3895 5.36658 9.5068 6.47979 7.98515 8.00316C6.4635 9.52654 5.35242 11.4105 4.75554 13.4792C4.15866 15.548 4.09542 17.7343 4.57172 19.8341C5.04801 21.9339 6.04833 23.8789 7.47938 25.4877C8.91043 27.0965 10.7256 28.3166 12.7556 29.0344" stroke="url(#paint2_linear_47_1008)" stroke-width="2" stroke-linecap="round" stroke-linejoin="round"/>
</g>
<defs>
<linearGradient id="paint0_linear_47_1008" x1="22.6668" y1="15.5835" x2="22.6668" y2="29.7502" gradientUnits="userSpaceOnUse">
<stop offset="0.280556" stop-color="#55ABC8"/>
<stop offset="1" stop-color="#5E0CE4"/>
</linearGradient>
<linearGradient id="paint1_linear_47_1008" x1="16.2915" y1="9.9165" x2="16.2915" y2="22.6665" gradientUnits="userSpaceOnUse">
<stop offset="0.280556" stop-color="#55ABC8"/>
<stop offset="1" stop-color="#5E0CE4"/>
</linearGradient>
<linearGradient id="paint2_linear_47_1008" x1="16.6388" y1="4.26367" x2="16.6388" y2="29.0344" gradientUnits="userSpaceOnUse">
<stop offset="0.280556" stop-color="#55ABC8"/>
<stop offset="1" stop-color="#5E0CE4"/>
</linearGradient>
<clipPath id="clip0_47_1008">
<rect width="34" height="34" fill="white"/>
</clipPath>
</defs>
</svg>
