<svg width="34" height="34" viewBox="0 0 34 34" fill="none" xmlns="http://www.w3.org/2000/svg">
<g clip-path="url(#clip0_55_29)">
<path d="M29.7502 20.9999H18.4168C18.4168 20.7197 18.3337 20.4458 18.1781 20.2129C18.0224 19.9799 17.8012 19.7983 17.5423 19.6911C17.2834 19.5839 16.9986 19.5558 16.7238 19.6105C16.449 19.6651 16.1966 19.8001 15.9984 19.9982C15.8003 20.1963 15.6654 20.4487 15.6107 20.7235C15.5561 20.9983 15.5841 21.2832 15.6913 21.5421C15.7986 21.8009 15.9801 22.0222 16.2131 22.1778C16.4461 22.3335 16.72 22.4166 17.0002 22.4166V33.7499C20.3817 33.7499 23.6247 32.4066 26.0158 30.0155C28.4069 27.6244 29.7502 24.3814 29.7502 20.9999Z" stroke="url(#paint0_linear_55_29)" stroke-width="2" stroke-linecap="round" stroke-linejoin="round"/>
<path d="M22.6665 16.7501C22.0576 15.9382 21.2813 15.2667 20.3903 14.7809C19.4993 14.2951 18.5143 14.0065 17.502 13.9346C16.4897 13.8626 15.4737 14.009 14.523 14.3639C13.5722 14.7188 12.7088 15.2738 11.9912 15.9914C11.2736 16.709 10.7185 17.5724 10.3637 18.5232C10.0088 19.474 9.86238 20.4899 9.93432 21.5022C10.0063 22.5145 10.2949 23.4995 10.7806 24.3906C11.2664 25.2816 11.938 26.0578 12.7498 26.6667" stroke="url(#paint1_linear_55_29)" stroke-width="2" stroke-linecap="round" stroke-linejoin="round"/>
<path d="M29.0218 16.7501C28.3017 14.7209 27.0795 12.9071 25.4691 11.4779C23.8587 10.0486 21.9125 9.05051 19.8122 8.57659C17.7118 8.10267 15.5257 8.16839 13.4576 8.76761C11.3895 9.36683 9.5068 10.48 7.98515 12.0034C6.4635 13.5268 5.35242 15.4107 4.75554 17.4795C4.15866 19.5483 4.09542 21.7345 4.57172 23.8343C5.04801 25.9341 6.04833 27.8791 7.47938 29.4879C8.91043 31.0967 10.7256 32.3169 12.7556 33.0346" stroke="url(#paint2_linear_55_29)" stroke-width="2" stroke-linecap="round" stroke-linejoin="round"/>
</g>
<defs>
<linearGradient id="paint0_linear_55_29" x1="22.6668" y1="19.5833" x2="22.6668" y2="33.7499" gradientUnits="userSpaceOnUse">
<stop offset="0.280556" stop-color="#55ABC8"/>
<stop offset="1" stop-color="#5E0CE4"/>
</linearGradient>
<linearGradient id="paint1_linear_55_29" x1="16.2915" y1="13.9167" x2="16.2915" y2="26.6667" gradientUnits="userSpaceOnUse">
<stop offset="0.280556" stop-color="#55ABC8"/>
<stop offset="1" stop-color="#5E0CE4"/>
</linearGradient>
<linearGradient id="paint2_linear_55_29" x1="16.6388" y1="8.26392" x2="16.6388" y2="33.0346" gradientUnits="userSpaceOnUse">
<stop offset="0.280556" stop-color="#55ABC8"/>
<stop offset="1" stop-color="#5E0CE4"/>
</linearGradient>
<clipPath id="clip0_55_29">
<rect width="34" height="34" fill="white"/>
</clipPath>
</defs>
</svg>
