<svg width="42" height="42" viewBox="0 0 42 42" fill="none" xmlns="http://www.w3.org/2000/svg">
<g clip-path="url(#clip0_50_1209)">
<path d="M11.0355 15.2441C6.482 16.5094 3.5 18.6146 3.5 20.9999C3.5 24.8674 11.3348 27.9999 21 27.9999C22.3528 27.9999 23.6705 27.9386 24.934 27.8214" stroke="url(#paint0_linear_50_1209)" stroke-width="2" stroke-linecap="round" stroke-linejoin="round"/>
<path d="M30.961 26.7557C35.5163 25.4922 38.5 23.3852 38.5 21C38.5 17.1325 30.6653 14 21 14C19.6473 14 18.3295 14.0613 17.0625 14.1785" stroke="url(#paint1_linear_50_1209)" stroke-width="2" stroke-linecap="round" stroke-linejoin="round"/>
<path d="M11.0338 26.7522C9.85076 31.3285 10.185 34.965 12.25 36.155C15.5978 38.0888 22.2303 32.8703 27.062 24.5C27.7393 23.3275 28.3448 22.1568 28.875 21" stroke="url(#paint2_linear_50_1209)" stroke-width="2" stroke-linecap="round" stroke-linejoin="round"/>
<path d="M30.9645 15.253C32.1492 10.675 31.8167 7.03499 29.75 5.84499C26.4022 3.91124 19.7697 9.12974 14.938 17.5C14.2607 18.6725 13.6552 19.845 13.1232 21" stroke="url(#paint3_linear_50_1209)" stroke-width="2" stroke-linecap="round" stroke-linejoin="round"/>
<path d="M21 9.49199C17.6313 6.18099 14.315 4.65149 12.25 5.84499C8.90225 7.77699 10.1045 16.1297 14.938 24.5C15.6135 25.6725 16.3258 26.782 17.059 27.818" stroke="url(#paint4_linear_50_1209)" stroke-width="2" stroke-linecap="round" stroke-linejoin="round"/>
<path d="M21 32.5044C24.3705 35.8172 27.6867 37.3484 29.75 36.1549C33.0977 34.2229 31.8955 25.8702 27.062 17.4999C26.4057 16.3624 25.697 15.2547 24.941 14.1802" stroke="url(#paint5_linear_50_1209)" stroke-width="2" stroke-linecap="round" stroke-linejoin="round"/>
<path d="M20.125 22.5156C20.3241 22.6323 20.5443 22.7085 20.773 22.7397C21.0017 22.771 21.2343 22.7567 21.4574 22.6977C21.6805 22.6387 21.8898 22.5362 22.0731 22.396C22.2564 22.2558 22.4102 22.0808 22.5256 21.8809C22.641 21.681 22.7157 21.4603 22.7455 21.2314C22.7752 21.0026 22.7594 20.7701 22.6989 20.5473C22.6385 20.3246 22.5345 20.1161 22.3931 19.9337C22.2517 19.7513 22.0757 19.5986 21.875 19.4846C21.4733 19.2562 20.9975 19.1959 20.5516 19.317C20.1056 19.4381 19.7256 19.7306 19.4945 20.1308C19.2635 20.531 19.2001 21.0064 19.3182 21.4532C19.4363 21.8999 19.7264 22.2818 20.125 22.5156Z" stroke="url(#paint6_linear_50_1209)" stroke-width="2" stroke-linecap="round" stroke-linejoin="round"/>
</g>
<defs>
<linearGradient id="paint0_linear_50_1209" x1="14.217" y1="15.2441" x2="14.217" y2="27.9999" gradientUnits="userSpaceOnUse">
<stop stop-color="#55ABC8"/>
<stop offset="1" stop-color="#5E0CE4"/>
</linearGradient>
<linearGradient id="paint1_linear_50_1209" x1="27.7813" y1="14" x2="27.7813" y2="26.7557" gradientUnits="userSpaceOnUse">
<stop stop-color="#55ABC8"/>
<stop offset="1" stop-color="#5E0CE4"/>
</linearGradient>
<linearGradient id="paint2_linear_50_1209" x1="19.6146" y1="21" x2="19.6146" y2="36.5576" gradientUnits="userSpaceOnUse">
<stop stop-color="#55ABC8"/>
<stop offset="1" stop-color="#5E0CE4"/>
</linearGradient>
<linearGradient id="paint3_linear_50_1209" x1="22.3846" y1="5.44238" x2="22.3846" y2="21" gradientUnits="userSpaceOnUse">
<stop stop-color="#55ABC8"/>
<stop offset="1" stop-color="#5E0CE4"/>
</linearGradient>
<linearGradient id="paint4_linear_50_1209" x1="15.6771" y1="5.44214" x2="15.6771" y2="27.818" gradientUnits="userSpaceOnUse">
<stop stop-color="#55ABC8"/>
<stop offset="1" stop-color="#5E0CE4"/>
</linearGradient>
<linearGradient id="paint5_linear_50_1209" x1="26.3229" y1="14.1802" x2="26.3229" y2="36.5575" gradientUnits="userSpaceOnUse">
<stop stop-color="#55ABC8"/>
<stop offset="1" stop-color="#5E0CE4"/>
</linearGradient>
<linearGradient id="paint6_linear_50_1209" x1="21.0101" y1="19.2559" x2="21.0101" y2="22.7559" gradientUnits="userSpaceOnUse">
<stop stop-color="#55ABC8"/>
<stop offset="1" stop-color="#5E0CE4"/>
</linearGradient>
<clipPath id="clip0_50_1209">
<rect width="42" height="42" fill="white"/>
</clipPath>
</defs>
</svg>
