<svg width="79" height="57" viewBox="0 0 79 57" fill="none" xmlns="http://www.w3.org/2000/svg">
<g clip-path="url(#clip0_26_291)">
<path d="M45.1926 28.3976H45.1916C45.1916 38.7003 37.2852 47.0525 27.5331 47.0525C17.7796 47.0525 9.87278 38.7003 9.87278 28.3976H9.87327C9.87327 18.0948 17.7796 9.7431 27.5331 9.7431C37.2852 9.7431 45.1926 18.0948 45.1926 28.3976ZM0.855957 28.3976C0.855957 43.9628 12.8 56.5791 27.5331 56.5791C42.2648 56.5791 54.2084 43.9628 54.2084 28.3976C54.2084 12.8333 42.2648 0.216015 27.5331 0.216015C12.8 0.216015 0.855957 12.8333 0.855957 28.3976Z" fill="#F25527"/>
<path d="M9.87303 28.3974C9.87303 31.0277 7.85394 33.1611 5.36314 33.1611C2.87285 33.1611 0.853271 31.0277 0.853271 28.3974C0.853271 25.7658 2.87285 23.6335 5.36314 23.6335C7.85394 23.6335 9.87303 25.7658 9.87303 28.3974Z" fill="#F57B3A"/>
<path d="M54.2083 28.3974C54.2083 31.0277 52.1891 33.1611 49.6984 33.1611C47.2076 33.1611 45.1885 31.0277 45.1885 28.3974C45.1885 25.7658 47.2076 23.6335 49.6984 23.6335C52.1891 23.6335 54.2083 25.7658 54.2083 28.3974Z" fill="#F57B3A"/>
<path d="M25.2455 23.3451C24.6004 23.3451 23.9411 23.6626 23.9411 24.4061C23.9411 25.1341 24.5406 25.3557 25.3351 25.6722C26.6841 26.1956 28.3485 27.0034 28.3485 29.1254C28.3485 31.4058 26.6988 32.5776 24.7508 32.5776C23.1916 32.5776 21.8431 31.8019 21.1833 31.0418L22.4872 29.4262C22.8316 29.7747 23.7907 30.3609 24.7508 30.3609C25.4404 30.3609 25.9939 29.9331 25.9939 29.1254C25.9939 28.3652 25.2151 28.0329 24.5696 27.779C22.8164 27.1463 21.6022 26.5436 21.6022 24.4061C21.6022 22.1889 23.4017 21.1119 25.2598 21.1119C26.5195 21.1119 27.6893 21.7456 28.228 22.3163C27.794 22.8858 27.3738 23.4559 26.9393 24.0111C26.6543 23.7096 25.9651 23.3451 25.2455 23.3451Z" fill="#1E2D51"/>
<path d="M33.3403 26.4338C32.3802 26.4338 31.6762 27.2887 31.6762 28.4289C31.6762 29.5691 32.3802 30.425 33.3403 30.425C34.3298 30.425 35.0189 29.5691 35.0189 28.4289C35.0189 27.2887 34.3298 26.4338 33.3403 26.4338ZM33.3403 32.5781C31.0322 32.5781 29.3672 30.8046 29.3672 28.4289C29.3672 26.0532 31.0322 24.2792 33.3403 24.2792C35.6787 24.2792 37.328 26.0532 37.328 28.4289C37.328 30.8046 35.6787 32.5781 33.3403 32.5781Z" fill="#1E2D51"/>
<path d="M40.9103 20.8271V29.1571C40.9103 29.9649 41.1958 30.2817 41.6303 30.2186L41.7351 32.2774C41.7351 32.2774 41.4805 32.3882 41.0455 32.3882C39.8018 32.3882 38.6326 31.6746 38.6326 29.664V20.8271H40.9103Z" fill="#1E2D51"/>
<path d="M43.084 32.3882H45.3627V24.4694H43.084V32.3882Z" fill="#1E2D51"/>
<path d="M51.3437 26.9076C51.3437 26.9076 50.8348 26.4333 49.9952 26.4333C49.5755 26.4333 49.2006 26.6068 49.2006 26.9396C49.2006 27.2876 49.8306 27.431 50.5497 27.6838C51.494 28.0157 52.5737 28.6028 52.5737 30.1552C52.5737 31.6745 51.5397 32.5781 49.7101 32.5781C47.7616 32.5781 46.6667 31.4213 46.6667 31.4213C47.0562 30.8677 47.4466 30.3132 47.8365 29.7426C47.9859 29.8855 48.5854 30.4551 49.4407 30.4551C49.9198 30.4551 50.2646 30.265 50.2646 29.9331C50.2646 29.5209 49.5901 29.3946 48.8558 29.1254C47.9114 28.7774 46.8921 28.2388 46.8921 26.687C46.8921 25.0555 48.1509 24.2792 49.8453 24.2792C51.4642 24.2792 52.3337 25.1501 52.3337 25.1501L51.3437 26.9076Z" fill="#1E2D51"/>
<path d="M56.6058 21.6824V24.4703H57.8794V26.5917H56.6058V29.5525C56.6058 30.2495 57.0257 30.2976 57.3695 30.2976C57.5645 30.2976 57.8054 30.266 57.9549 30.2334L58.4045 32.341C58.1204 32.388 57.685 32.4517 57.3695 32.4517C56.0058 32.4517 54.3266 32.3088 54.3266 29.5525V26.5917H53.4719V24.4703H54.3266V21.6824H56.6058Z" fill="#1E2D51"/>
<path d="M59.4534 32.3882H61.7326V24.4694H59.4534V32.3882Z" fill="#1E2D51"/>
<path d="M68.3595 26.9719C68.1042 26.6555 67.684 26.4338 67.0545 26.4338C66.1851 26.4338 65.3906 27.1779 65.3906 28.4295C65.3906 29.6008 66.0651 30.4241 67.1143 30.4241C68.0136 30.4241 68.4942 29.87 68.4942 29.87L69.918 31.2168C69.918 31.2168 68.958 32.5776 67.1451 32.5776C64.7171 32.5776 63.082 30.8838 63.082 28.4295C63.082 25.8322 64.8659 24.2803 67.0545 24.2803C68.3736 24.2803 69.318 24.8183 69.8578 25.6411L68.3595 26.9719Z" fill="#1E2D51"/>
<path d="M75.1495 29.2522C73.8456 29.2838 72.7053 29.4744 72.7053 30.2345C72.7053 30.7098 73.276 30.8677 73.7702 30.8677C74.2948 30.8677 74.7592 30.6145 75.1495 30.3287V29.2522ZM70.9968 25.4043C71.657 24.7711 72.8258 24.2802 74.2203 24.2802C75.9896 24.2802 77.4282 25.2299 77.4282 27.1463V28.794C77.4282 29.6959 77.6384 30.2345 78.0881 30.2345C78.1624 30.2345 78.2227 30.2185 78.2379 30.2185L78.3286 32.2777C78.3286 32.2777 78.0733 32.388 77.6677 32.388C76.9335 32.388 76.2144 32.0711 75.7942 31.4689H75.7642C75.0897 32.1033 74.2805 32.5781 73.3362 32.5781C72.0161 32.5781 70.5024 32.008 70.5024 30.1873C70.5024 28.2543 72.7356 27.717 75.1495 27.6372V27.4476C75.1495 26.7662 74.5205 26.4338 73.7853 26.4338C73.1706 26.4338 72.6601 26.6709 72.3619 26.9724L70.9968 25.4043Z" fill="#1E2D51"/>
<path d="M45.3602 21.8135C45.3602 22.4767 44.8509 23.0137 44.2239 23.0137C43.5959 23.0137 43.0874 22.4767 43.0874 21.8135C43.0874 21.1507 43.5959 20.6142 44.2239 20.6142C44.8509 20.6142 45.3602 21.1507 45.3602 21.8135Z" fill="#1E2D51"/>
<path d="M61.729 21.8135C61.729 22.4767 61.2205 23.0137 60.5925 23.0137C59.9655 23.0137 59.4575 22.4767 59.4575 21.8135C59.4575 21.1507 59.9655 20.6142 60.5925 20.6142C61.2205 20.6142 61.729 21.1507 61.729 21.8135Z" fill="#1E2D51"/>
</g>
<defs>
<clipPath id="clip0_26_291">
<rect width="79" height="57" fill="white"/>
</clipPath>
</defs>
</svg>
