<svg width="78" height="57" viewBox="0 0 78 57" fill="none" xmlns="http://www.w3.org/2000/svg">
<path d="M44.3393 28.1818H44.3383C44.3383 38.4845 36.4319 46.8367 26.6798 46.8367C16.9263 46.8367 9.01951 38.4845 9.01951 28.1818H9.01999C9.01999 17.879 16.9263 9.52728 26.6798 9.52728C36.4319 9.52728 44.3393 17.879 44.3393 28.1818ZM0.00268555 28.1818C0.00268555 43.747 11.9467 56.3633 26.6798 56.3633C41.4116 56.3633 53.3551 43.747 53.3551 28.1818C53.3551 12.6175 41.4116 0.00019455 26.6798 0.00019455C11.9467 0.00019455 0.00268555 12.6175 0.00268555 28.1818Z" fill="#F25527"/>
<path d="M9.01976 28.1818C9.01976 30.8122 7.00067 32.9456 4.50987 32.9456C2.01958 32.9456 0 30.8122 0 28.1818C0 25.5503 2.01958 23.4179 4.50987 23.4179C7.00067 23.4179 9.01976 25.5503 9.01976 28.1818Z" fill="#F57B3A"/>
<path d="M53.355 28.1818C53.355 30.8122 51.3359 32.9456 48.8451 32.9456C46.3543 32.9456 44.3352 30.8122 44.3352 28.1818C44.3352 25.5503 46.3543 23.4179 48.8451 23.4179C51.3359 23.4179 53.355 25.5503 53.355 28.1818Z" fill="#F57B3A"/>
<path d="M24.3922 23.1295C23.7471 23.1295 23.0878 23.447 23.0878 24.1905C23.0878 24.9185 23.6873 25.1402 24.4818 25.4566C25.8309 25.98 27.4953 26.7879 27.4953 28.9098C27.4953 31.1902 25.8455 32.3621 23.8975 32.3621C22.3383 32.3621 20.9898 31.5863 20.3301 30.8262L21.634 29.2106C21.9783 29.5591 22.9375 30.1453 23.8975 30.1453C24.5872 30.1453 25.1407 29.7175 25.1407 28.9098C25.1407 28.1496 24.3618 27.8173 23.7163 27.5635C21.9631 26.9308 20.7489 26.328 20.7489 24.1905C20.7489 21.9733 22.5485 20.8963 24.4065 20.8963C25.6662 20.8963 26.836 21.5301 27.3747 22.1007C26.9407 22.6702 26.5205 23.2403 26.086 23.7955C25.801 23.4941 25.1118 23.1295 24.3922 23.1295Z" fill="#1E2D51"/>
<path d="M32.487 26.2182C31.5269 26.2182 30.823 27.0731 30.823 28.2133C30.823 29.3535 31.5269 30.2094 32.487 30.2094C33.4765 30.2094 34.1657 29.3535 34.1657 28.2133C34.1657 27.0731 33.4765 26.2182 32.487 26.2182ZM32.487 32.3625C30.1789 32.3625 28.5139 30.5891 28.5139 28.2133C28.5139 25.8376 30.1789 24.0636 32.487 24.0636C34.8254 24.0636 36.4747 25.8376 36.4747 28.2133C36.4747 30.5891 34.8254 32.3625 32.487 32.3625Z" fill="#1E2D51"/>
<path d="M40.057 20.6114V28.9414C40.057 29.7492 40.3425 30.066 40.777 30.0029L40.8819 32.0617C40.8819 32.0617 40.6272 32.1725 40.1922 32.1725C38.9485 32.1725 37.7793 31.4589 37.7793 29.4483V20.6114H40.057Z" fill="#1E2D51"/>
<path d="M42.2307 32.1725H44.5094V24.2537H42.2307V32.1725Z" fill="#1E2D51"/>
<path d="M50.4904 26.692C50.4904 26.692 49.9815 26.2177 49.1419 26.2177C48.7222 26.2177 48.3474 26.3912 48.3474 26.7241C48.3474 27.072 48.9774 27.2154 49.6964 27.4682C50.6408 27.8002 51.7204 28.3873 51.7204 29.9397C51.7204 31.4589 50.6864 32.3625 48.8569 32.3625C46.9083 32.3625 45.8135 31.2057 45.8135 31.2057C46.203 30.6522 46.5933 30.0977 46.9832 29.527C47.1327 29.6699 47.7322 30.2395 48.5874 30.2395C49.0665 30.2395 49.4114 30.0494 49.4114 29.7175C49.4114 29.3054 48.7369 29.179 48.0025 28.9098C47.0582 28.5618 46.0388 28.0233 46.0388 26.4714C46.0388 24.8399 47.2977 24.0636 48.992 24.0636C50.6109 24.0636 51.4804 24.9345 51.4804 24.9345L50.4904 26.692Z" fill="#1E2D51"/>
<path d="M55.7526 21.4668V24.2548H57.0261V26.3761H55.7526V29.3369C55.7526 30.0339 56.1724 30.082 56.5162 30.082C56.7112 30.082 56.9521 30.0505 57.1016 30.0179L57.5513 32.1254C57.2671 32.1725 56.8317 32.2361 56.5162 32.2361C55.1525 32.2361 53.4734 32.0932 53.4734 29.3369V26.3761H52.6187V24.2548H53.4734V21.4668H55.7526Z" fill="#1E2D51"/>
<path d="M58.6001 32.1725H60.8793V24.2537H58.6001V32.1725Z" fill="#1E2D51"/>
<path d="M67.5062 26.7563C67.2509 26.4399 66.8307 26.2183 66.2012 26.2183C65.3318 26.2183 64.5373 26.9623 64.5373 28.2139C64.5373 29.3852 65.2118 30.2085 66.261 30.2085C67.1604 30.2085 67.6409 29.6544 67.6409 29.6544L69.0648 31.0012C69.0648 31.0012 68.1047 32.3621 66.2919 32.3621C63.8638 32.3621 62.2288 30.6682 62.2288 28.2139C62.2288 25.6166 64.0127 24.0647 66.2012 24.0647C67.5204 24.0647 68.4647 24.6028 69.0046 25.4256L67.5062 26.7563Z" fill="#1E2D51"/>
<path d="M74.2963 29.0367C72.9924 29.0682 71.852 29.2588 71.852 30.0189C71.852 30.4943 72.4227 30.6522 72.9169 30.6522C73.4415 30.6522 73.9059 30.399 74.2963 30.1132V29.0367ZM70.1435 25.1888C70.8037 24.5555 71.9725 24.0647 73.3671 24.0647C75.1363 24.0647 76.575 25.0143 76.575 26.9307V28.5784C76.575 29.4803 76.7851 30.0189 77.2348 30.0189C77.3092 30.0189 77.3695 30.0029 77.3846 30.0029L77.4753 32.0622C77.4753 32.0622 77.22 32.1725 76.8145 32.1725C76.0803 32.1725 75.3611 31.8555 74.9409 31.2533H74.9109C74.2364 31.8877 73.4272 32.3625 72.4829 32.3625C71.1628 32.3625 69.6492 31.7924 69.6492 29.9717C69.6492 28.0388 71.8824 27.5014 74.2963 27.4216V27.232C74.2963 26.5507 73.6673 26.2182 72.9321 26.2182C72.3174 26.2182 71.8069 26.4554 71.5087 26.7568L70.1435 25.1888Z" fill="#1E2D51"/>
<path d="M44.5069 21.5979C44.5069 22.2611 43.9976 22.7981 43.3706 22.7981C42.7426 22.7981 42.2341 22.2611 42.2341 21.5979C42.2341 20.9351 42.7426 20.3987 43.3706 20.3987C43.9976 20.3987 44.5069 20.9351 44.5069 21.5979Z" fill="#1E2D51"/>
<path d="M60.8759 21.5979C60.8759 22.2611 60.3674 22.7981 59.7395 22.7981C59.1125 22.7981 58.6045 22.2611 58.6045 21.5979C58.6045 20.9351 59.1125 20.3987 59.7395 20.3987C60.3674 20.3987 60.8759 20.9351 60.8759 21.5979Z" fill="#1E2D51"/>
</svg>
