<svg width="42" height="42" viewBox="0 0 42 42" fill="none" xmlns="http://www.w3.org/2000/svg">
<g clip-path="url(#clip0_50_1219)">
<path d="M26.25 30.625C26.81 31.185 27.5695 31.5 28.3623 31.5H29.3125C30.52 31.5 31.5 30.52 31.5 29.3125V28.875C31.5 28.1788 31.2234 27.5111 30.7312 27.0188C30.2389 26.5266 29.5712 26.25 28.875 26.25C28.1788 26.25 27.5111 25.9734 27.0188 25.4812C26.5266 24.9889 26.25 24.3212 26.25 23.625V23.1875C26.25 21.98 27.23 21 28.4375 21H29.3877C30.1805 21 30.94 21.315 31.5 21.875" stroke="url(#paint0_linear_50_1219)" stroke-width="2" stroke-linecap="round" stroke-linejoin="round"/>
<path d="M15.75 21H22.75" stroke="url(#paint1_linear_50_1219)" stroke-width="2" stroke-linecap="round" stroke-linejoin="round"/>
<path d="M19.25 21V31.5" stroke="url(#paint2_linear_50_1219)" stroke-width="2" stroke-linecap="round" stroke-linejoin="round"/>
<path d="M36.75 33.25V8.75C36.75 7.82174 36.3813 6.9315 35.7249 6.27513C35.0685 5.61875 34.1783 5.25 33.25 5.25H8.75C7.82174 5.25 6.9315 5.61875 6.27513 6.27513C5.61875 6.9315 5.25 7.82174 5.25 8.75V33.25C5.25 34.1783 5.61875 35.0685 6.27513 35.7249C6.9315 36.3813 7.82174 36.75 8.75 36.75H33.25C34.1783 36.75 35.0685 36.3813 35.7249 35.7249C36.3813 35.0685 36.75 34.1783 36.75 33.25Z" stroke="url(#paint3_linear_50_1219)" stroke-width="2" stroke-linecap="round" stroke-linejoin="round"/>
</g>
<defs>
<linearGradient id="paint0_linear_50_1219" x1="28.875" y1="21" x2="28.875" y2="31.5" gradientUnits="userSpaceOnUse">
<stop stop-color="#55ABC8"/>
<stop offset="1" stop-color="#5E0CE4"/>
</linearGradient>
<linearGradient id="paint1_linear_50_1219" x1="19.25" y1="21" x2="19.25" y2="22" gradientUnits="userSpaceOnUse">
<stop stop-color="#55ABC8"/>
<stop offset="1" stop-color="#5E0CE4"/>
</linearGradient>
<linearGradient id="paint2_linear_50_1219" x1="19.75" y1="21" x2="19.75" y2="31.5" gradientUnits="userSpaceOnUse">
<stop stop-color="#55ABC8"/>
<stop offset="1" stop-color="#5E0CE4"/>
</linearGradient>
<linearGradient id="paint3_linear_50_1219" x1="21" y1="5.25" x2="21" y2="36.75" gradientUnits="userSpaceOnUse">
<stop stop-color="#55ABC8"/>
<stop offset="1" stop-color="#5E0CE4"/>
</linearGradient>
<clipPath id="clip0_50_1219">
<rect width="42" height="42" fill="white"/>
</clipPath>
</defs>
</svg>
